<svg id="Layer_1" data-name="Layer 1" xmlns="http://www.w3.org/2000/svg" viewBox="0 0 36.55 29.25"><defs><style>.cls-1{fill:#1b52a2;}</style></defs><title>hamburger</title><path class="cls-1" d="M20,5.38H35.74A2.44,2.44,0,0,1,36,10.25H4.32a2.44,2.44,0,1,1-.21-4.87c1,0,2.11,0,3.16,0Z" transform="translate(-1.72 -5.37)"/><path class="cls-1" d="M20,22.44H4.24A2.44,2.44,0,0,1,4,17.57H35.67A2.44,2.44,0,1,1,36,22.43c-.26,0-.53,0-.8,0Z" transform="translate(-1.72 -5.37)"/><path class="cls-1" d="M20,34.62H4.25A2.44,2.44,0,0,1,4,29.75H35.73a2.44,2.44,0,1,1,.15,4.87c-1.46,0-2.92,0-4.38,0Z" transform="translate(-1.72 -5.37)"/></svg>