<svg id="Layer_1" data-name="Layer 1" xmlns="http://www.w3.org/2000/svg" viewBox="0 0 978.16 675.44"><defs><style>.cls-1{fill:#92b5f9;}.cls-2{fill:#dde8fe;}.cls-3{fill:#f47257;}.cls-4{fill:#4951ec;}.cls-5{fill:#7c9af2;}.cls-6{fill:#50bfa5;}.cls-7{fill:#3c8f7c;}.cls-8{fill:#fa7167;}.cls-9{fill:#e8605d;}.cls-10{fill:#fff;}.cls-11{fill:#fb9390;}.cls-12{fill:#bed1f9;}.cls-13{fill:#0b0754;}.cls-14{fill:#f7a491;}.cls-15{fill:#ef7f7f;}</style></defs><title>hero_image</title><path class="cls-1" d="M774.72,655.85c-14.4-12.05-21.79-23.2-23.12-25.31l50.66-32s-.07-.12-.22-.34a65.76,65.76,0,0,0,12.7,13A79.08,79.08,0,0,0,852,627.38c17.71,2.82,36-3.08,48.21-8.54a129.64,129.64,0,0,0,22.83-13l44.92,8.68-8.44,38.86c-17.55,13.47-45.45,26.78-71.31,31.91C845.26,693.85,804.29,680.58,774.72,655.85Z" transform="translate(-11.07 -65.49)"/><path class="cls-2" d="M848,234.26l11.89-6.16,11.82,6.3a1.84,1.84,0,0,0,2.68-1.93l-2.18-13.21,9.64-9.29a1.83,1.83,0,0,0-1-3.14l-13.24-2-5.86-12a1.84,1.84,0,0,0-3.3,0l-6,12-13.26,1.85a1.85,1.85,0,0,0-1,3.14l9.54,9.4-2.34,13.19A1.83,1.83,0,0,0,848,234.26Z" transform="translate(-11.07 -65.49)"/><rect class="cls-3" x="227.02" y="410.7" width="585" height="61.24"/><path class="cls-4" d="M667.49,692.92A1129.68,1129.68,0,0,0,245.18,566.38l16.35-191.49c170.08,16,335.76,65.66,488.28,146.31Z" transform="translate(-11.07 -65.49)"/><path class="cls-5" d="M258.14,531.37q5.58-59.72,11.15-119.43c15.46,1.59,29.31-8.39,31-22.69a1296.66,1296.66,0,0,1,409.4,122.67c-5.75,13.08,1,29.23,14.93,36.45L674.06,656a24.3,24.3,0,0,0-33.73,11.92A1138.72,1138.72,0,0,0,280.81,560.19C282.49,545.9,272.37,532.83,258.14,531.37Z" transform="translate(-11.07 -65.49)"/><path class="cls-6" d="M562.56,537.94C550.67,572.18,514,589.62,480,579.17s-55.84-46-48.19-81.6,45.35-56.76,83.6-44.93S574.43,503.76,562.56,537.94Z" transform="translate(-11.07 -65.49)"/><path class="cls-7" d="M479.7,567.12l2.85-11.47a62.14,62.14,0,0,1-13.86-6.49,7.41,7.41,0,0,1-2.67-9.61l.21-.4a7.12,7.12,0,0,1,10.26-2.51,45.69,45.69,0,0,0,12.7,5.89c6.95,1.94,12.38.69,13.64-4.13,1.19-4.56-2-8.62-10.38-14.2-12.15-8-19.91-16.4-17.23-28.18,2.42-10.66,12.26-17,26.61-15.79q1.41-5.75,2.81-11.48,6.33,1.75,12.64,3.57-1.35,5.31-2.71,10.61a57.44,57.44,0,0,1,11.23,5,7.36,7.36,0,0,1,2.93,10h0a7.47,7.47,0,0,1-10.44,2.21,42.06,42.06,0,0,0-10.71-4.72c-8.23-2.34-11.73.34-12.55,3.72-1,4,2.83,7.71,12.45,14.62,13.55,9.37,17.6,17.86,14.63,28.62S509,559.73,494.58,558.14q-1.57,6.15-3.17,12.28Q485.56,568.74,479.7,567.12Z" transform="translate(-11.07 -65.49)"/><path class="cls-6" d="M411.65,496.25q-50.43-11.64-101.75-18.94l2.37-18.41q52,7.38,103.18,19.2Q413.56,487.17,411.65,496.25Z" transform="translate(-11.07 -65.49)"/><path class="cls-6" d="M673.83,589.34q-46.94-23-95.43-41.77,3.08-8.7,6.13-17.42,49.14,19.07,96.77,42.35Z" transform="translate(-11.07 -65.49)"/><path class="cls-4" d="M729.13,473.83c-136.11,28.43-265.72,85.42-382,168L252.88,479.14C387.32,383.72,537.18,317.83,694.55,285Q711.85,379.39,729.13,473.83Z" transform="translate(-11.07 -65.49)"/><path class="cls-5" d="M337.27,605.7q-29.06-51-58.09-102c12.29-8.57,17-25.31,10.28-37.75C404,389.91,529,334.94,659.78,303.1c3,14.06,17,22.6,31.25,19.49q11.22,58.85,22.45,117.7c-13.15,2.87-21.3,16.88-18.28,30.93-114.82,28-224.6,76.23-325.2,143C363.31,601.77,348.58,597.82,337.27,605.7Z" transform="translate(-11.07 -65.49)"/><path class="cls-4" d="M565.62,417.34c10.24,34.79-7.15,72-38.06,85.29s-66.78-1.1-80.87-34.22,2-74,36.76-88.89S555.41,382.62,565.62,417.34Z" transform="translate(-11.07 -65.49)"/><path class="cls-1" d="M520.66,493.23,516.4,482.3A54.26,54.26,0,0,1,502.56,486a6.74,6.74,0,0,1-7.31-5.94l-.06-.46c-.62-4.15,2.22-8.11,6.18-8.51a39.89,39.89,0,0,0,12.65-3.4c6.2-2.88,9.52-7.33,7.77-12-1.66-4.38-6.25-5.6-15.55-4.68-13.42,1.34-23.8-.38-28.36-11.45-4.14-10-.42-21.36,10.87-29.48q-2.14-5.46-4.3-10.91,5.64-2.64,11.32-5.2,1.94,5.07,3.89,10.15A50.49,50.49,0,0,1,510.72,401a6.69,6.69,0,0,1,7.71,6.08h0a7.7,7.7,0,0,1-6.48,8.39,36.47,36.47,0,0,0-10.53,3.06c-7.38,3.37-8.47,7.72-7.2,10.93,1.5,3.8,6.37,4.33,17.31,3.71,15.21-1.17,22.91,3,26.69,13.45s0,22.12-11.56,30.05q2.24,5.89,4.48,11.78Q525.89,490.79,520.66,493.23Z" transform="translate(-11.07 -65.49)"/><path class="cls-6" d="M431.08,480.16Q387.39,503,345.45,529.81L337,513.67q42.48-27.19,86.83-50.35Z" transform="translate(-11.07 -65.49)"/><path class="cls-4" d="M676.3,387.45q-47.38,11.6-93.63,27.48-2.58-8.88-5.15-17.76,46.85-16.08,94.94-27.86Z" transform="translate(-11.07 -65.49)"/><path class="cls-4" d="M750.85,592.81A1035.25,1035.25,0,0,0,333,654q-27.77-91.2-55.55-182.4C433,415,596.9,390.92,760.57,400.84Z" transform="translate(-11.07 -65.49)"/><path class="cls-5" d="M331.67,616.51q-16.92-57.07-33.82-114.16c14.18-5,22.73-20,19-33.8a1187.65,1187.65,0,0,1,405-59.36c-.28,14.4,11.56,26.37,26.45,27.14L743.15,556.2c-13.71-.71-25,10.69-25.33,25.09a1043.07,1043.07,0,0,0-355.68,52.12C358.4,619.61,344.72,611.87,331.67,616.51Z" transform="translate(-11.07 -65.49)"/><path class="cls-4" d="M601.91,494.78c2.05,36.38-23.85,67.76-57.59,72.45s-65.94-18.78-72.2-54.58,19.17-71.06,57.15-76.27S599.88,458.46,601.91,494.78Z" transform="translate(-11.07 -65.49)"/><path class="cls-1" d="M539.67,556.3,538,544.59a56,56,0,0,1-14.57-.13,7.06,7.06,0,0,1-5.86-7.69c0-.15,0-.31,0-.46a7.15,7.15,0,0,1,8.11-6.6,41,41,0,0,0,13.33.06c6.82-1.13,11.14-4.56,10.49-9.5-.62-4.69-4.89-7.08-14.32-8.66-13.62-2.26-23.51-6.68-25.45-18.6-1.77-10.8,4.56-20.78,17.64-25.65q-.85-5.85-1.72-11.7,6.21-1.05,12.43-2,.75,5.43,1.49,10.86a52,52,0,0,1,11.71-.13,7,7,0,0,1,6.22,7.93h0a7.48,7.48,0,0,1-8.37,6.4,37.6,37.6,0,0,0-11.15.17c-8.1,1.31-10.2,5.23-9.69,8.67.6,4.07,5.31,5.88,16.3,8.18,15.34,2.91,22,9,23.32,20.1s-5.16,21.4-18.46,26q.85,6.3,1.69,12.59Q545.43,555.33,539.67,556.3Z" transform="translate(-11.07 -65.49)"/><path class="cls-6" d="M453.91,519.89q-48.63,10.5-96.45,25.34-2.32-8.93-4.64-17.87,48.45-15,97.8-25.7Q452.27,510.78,453.91,519.89Z" transform="translate(-11.07 -65.49)"/><path class="cls-6" d="M718.6,495.2q-49.68-1.33-99.22,1.76-.5-9.27-1-18.55,50.19-3.14,100.61-1.78Z" transform="translate(-11.07 -65.49)"/><rect class="cls-8" x="227.02" y="410.7" width="585" height="257.46"/><path class="cls-9" d="M823.09,667.91H678.33a11.91,11.91,0,0,0-11.62,12.17h0a11.91,11.91,0,0,0,11.62,12.17H659.56a11.91,11.91,0,0,0-11.62,12.17h0a11.91,11.91,0,0,0,11.62,12.17h3.26a11.91,11.91,0,0,0-11.63,12.17,12.5,12.5,0,0,0,1,4.88H823.09Z" transform="translate(-11.07 -65.49)"/><rect class="cls-9" x="248.58" y="423.37" width="532.54" height="19.99"/><rect class="cls-5" x="220.58" y="505.07" width="279.63" height="159.9" rx="41.57"/><rect class="cls-2" x="238.56" y="536.86" width="68.86" height="40.04"/><rect class="cls-2" x="360.39" y="526.72" width="122.11" height="7.47"/><rect class="cls-2" x="248.7" y="612.13" width="224.73" height="9.23"/><rect class="cls-2" x="248.7" y="633.87" width="224.73" height="9.23"/><rect class="cls-9" x="255.34" y="476.43" width="248.3" height="6.64"/><circle class="cls-2" cx="656.84" cy="443.75" r="55.3" transform="translate(92.41 945.83) rotate(-79.77)"/><path class="cls-1" d="M694.83,417.09a46.4,46.4,0,1,1-64.64-11.33A46.4,46.4,0,0,1,694.83,417.09Z" transform="translate(-11.07 -65.49)"/><path class="cls-10" d="M662.2,476.39l-2-7.48a37.92,37.92,0,0,1-9.88.87,4.71,4.71,0,0,1-4.47-4.65v-.3a4.72,4.72,0,0,1,5-4.77,27.31,27.31,0,0,0,8.93-.84c4.49-1.21,7.09-3.77,6.24-6.92-.81-3-3.84-4.2-10.2-4.59-9.18-.56-16-2.94-18.06-10.58-1.87-6.92,1.54-13.67,9.51-17.6l-2-7.48,7.72-2.09,1.87,6.93a34.73,34.73,0,0,1,7.46-.91,4.71,4.71,0,0,1,4.71,4.66h0a4.7,4.7,0,0,1-4.81,4.77,25.28,25.28,0,0,0-7.18.89c-5.12,1.38-6.17,4-5.58,6.24.71,2.6,3.91,3.51,11.28,4.21,10.26.78,15.21,4.09,17.13,11.17s-1.45,14.33-10.08,18.35l2.17,8Z" transform="translate(-11.07 -65.49)"/><circle class="cls-2" cx="709.01" cy="620.73" r="55.3" transform="translate(-242.33 617.67) rotate(-45)"/><path class="cls-1" d="M747,594.07a46.41,46.41,0,1,1-64.64-11.32A46.4,46.4,0,0,1,747,594.07Z" transform="translate(-11.07 -65.49)"/><path class="cls-10" d="M714.37,653.37l-2-7.48a37.5,37.5,0,0,1-9.88.87,4.71,4.71,0,0,1-4.47-4.65v-.3a4.71,4.71,0,0,1,5-4.76,27.59,27.59,0,0,0,8.93-.84c4.49-1.22,7.09-3.78,6.24-6.93-.81-3-3.84-4.2-10.19-4.59-9.19-.55-16-2.94-18.07-10.57-1.87-6.93,1.54-13.68,9.51-17.61l-2-7.48,7.72-2.08,1.87,6.92a34.65,34.65,0,0,1,7.46-.9,4.7,4.7,0,0,1,4.71,4.65h0a4.71,4.71,0,0,1-4.81,4.78,24.88,24.88,0,0,0-7.18.88c-5.12,1.39-6.17,4-5.58,6.24.71,2.6,3.91,3.51,11.28,4.22,10.26.77,15.21,4.08,17.13,11.16s-1.45,14.33-10.08,18.36l2.17,8Z" transform="translate(-11.07 -65.49)"/><circle class="cls-2" cx="601.54" cy="551.5" r="55.3" transform="translate(14.24 1063.9) rotate(-87.6)"/><circle class="cls-1" cx="601.54" cy="551.5" r="46.4" transform="translate(23.28 1072.78) rotate(-88.49)"/><path class="cls-10" d="M587.17,581.29l2.64-7.28a37.75,37.75,0,0,1-8.58-5,4.72,4.72,0,0,1-1-6.38l.17-.24a4.7,4.7,0,0,1,6.82-1,27.6,27.6,0,0,0,7.8,4.45c4.37,1.58,8,1,9.08-2.08s-.73-5.65-5.7-9.62c-7.21-5.73-11.41-11.6-8.72-19,2.45-6.75,9.12-10.31,17.91-9l2.64-7.28,7.51,2.72-2.45,6.75a34.57,34.57,0,0,1,6.63,3.54,4.7,4.7,0,0,1,1.18,6.52h0a4.71,4.71,0,0,1-6.68,1.14,25.43,25.43,0,0,0-6.39-3.4c-5-1.8-7.37-.24-8.15,1.91-.91,2.53,1.19,5.11,6.81,9.93,8,6.52,10.11,12.07,7.61,19s-9.42,10.9-18.79,9.24L594.68,584Z" transform="translate(-11.07 -65.49)"/><rect class="cls-11" x="530.66" y="517.9" width="250.46" height="134.23"/><path class="cls-9" d="M666.71,680.08h0a11.91,11.91,0,0,0,11.62,12.17H659.56a11.91,11.91,0,0,0-11.62,12.17h0a11.91,11.91,0,0,0,11.62,12.17h3.26a11.19,11.19,0,0,0-4.67,1h134v-49.7H678.33A11.91,11.91,0,0,0,666.71,680.08Z" transform="translate(-11.07 -65.49)"/><path class="cls-4" d="M33.34,729.72h0A3.78,3.78,0,0,0,37,733.64H945a3.79,3.79,0,0,0,3.65-3.92h0A3.79,3.79,0,0,0,945,725.8H37A3.78,3.78,0,0,0,33.34,729.72Z" transform="translate(-11.07 -65.49)"/><path class="cls-5" d="M824.56,740.93H675.07a10.86,10.86,0,0,1-10.86-10.86h0a10.86,10.86,0,0,1,10.86-10.86H824.56a10.86,10.86,0,0,1,10.86,10.86h0A10.86,10.86,0,0,1,824.56,740.93Z" transform="translate(-11.07 -65.49)"/><path class="cls-12" d="M821.52,719.21H672a10.86,10.86,0,0,1-10.86-10.86h0A10.86,10.86,0,0,1,672,697.49H821.52a10.86,10.86,0,0,1,10.86,10.86h0A10.86,10.86,0,0,1,821.52,719.21Z" transform="translate(-11.07 -65.49)"/><path class="cls-5" d="M839.06,697.49H689.57a10.86,10.86,0,0,1-10.86-10.86h0a10.87,10.87,0,0,1,10.86-10.87H839.06a10.87,10.87,0,0,1,10.86,10.87h0A10.86,10.86,0,0,1,839.06,697.49Z" transform="translate(-11.07 -65.49)"/><polygon class="cls-4" points="637.86 161.71 639.76 174.57 619.39 179.92 619.85 199.08 605.27 205.57 608.55 212.95 628.06 204.27 627.63 186.12 648.81 180.55 645.95 161.19 637.86 161.71"/><path class="cls-12" d="M456.33,186.46l3.93-9.74a50.89,50.89,0,0,1-11.39-7.14,6.39,6.39,0,0,1-1-8.68l.24-.32a6.39,6.39,0,0,1,9.3-1.08,37.15,37.15,0,0,0,10.35,6.4c5.84,2.35,10.75,1.71,12.4-2.39,1.57-3.9-.72-7.68-7.27-13.3C463.36,142.1,458,134,462,124c3.64-9,12.85-13.54,24.68-11.27l3.93-9.74,10,4-3.63,9a47.1,47.1,0,0,1,8.81,5.12,6.39,6.39,0,0,1,1.29,8.88h0a6.4,6.4,0,0,1-9.11,1.23,34,34,0,0,0-8.49-4.91c-6.66-2.68-10-.68-11.13,2.19-1.36,3.39,1.36,7,8.75,13.78,10.46,9.22,13.11,16.84,9.4,26.07s-13.28,14.31-25.9,11.61l-4.21,10.45Z" transform="translate(-11.07 -65.49)"/><path class="cls-2" d="M474.9,290.38a4.08,4.08,0,0,1-.7,5.14,40.17,40.17,0,0,1-12.74,7.69c-8,3-16.84,3.28-24.82-.34a29.81,29.81,0,0,1-12.77-11.62L419.16,293a3.1,3.1,0,0,1-4-1.81l-.05-.12a3.09,3.09,0,0,1,1.82-4l3.86-1.45c-.62-1.29-1.05-2.09-1.33-2.81a31.47,31.47,0,0,1-1.22-4.37l-4,1.5a3.1,3.1,0,0,1-4-1.82h0a3.1,3.1,0,0,1,1.81-4l4.84-1.81a31.84,31.84,0,0,1,2.3-17,34.24,34.24,0,0,1,19.45-17.64,35.23,35.23,0,0,1,12.09-2.4,4.18,4.18,0,0,1,4.22,4v.07a4.18,4.18,0,0,1-4,4.37,29.86,29.86,0,0,0-9.41,2,22.32,22.32,0,0,0-12.69,11.39,18.59,18.59,0,0,0-1.42,11.28l27.2-10.2a3.09,3.09,0,0,1,4,1.81h0a3.1,3.1,0,0,1-1.81,4L428.4,274.66c.38,1.37.76,2.75,1.08,3.6.4,1.08.81,2.17,1.48,3.58l28.46-10.69A3.18,3.18,0,0,1,463.5,273h0a3.18,3.18,0,0,1-1.85,4.08L434.39,287.3a19.69,19.69,0,0,0,8,6.94c5.94,2.59,11.41,2.47,17.45.2a34.2,34.2,0,0,0,9.08-5.11,4.08,4.08,0,0,1,6,1.05Z" transform="translate(-11.07 -65.49)"/><polygon class="cls-4" points="389.58 127.96 377.23 129.21 373.02 109.56 354.74 109.17 349.19 94.98 342 97.8 349.43 116.77 366.76 117.14 371.14 137.58 389.72 135.69 389.58 127.96"/><path class="cls-8" d="M543.35,178.75l13.21,4.36s21-6.79,23-11.06,2.65-14.63,5.62-14.91,8.75.69,10.12,7.78c1,5.14-6.54,20-5.37,21.6.74,1,8.26,3.71,13.79,5.61a10.31,10.31,0,0,1,6.81,8.31h0a5.67,5.67,0,0,1-3.54,6.09L603.2,208l1.22,3.92a5.67,5.67,0,0,1-3.59,7l-2.94,1,.94,2.39a5.67,5.67,0,0,1-3.66,7.5l-2.56.74.1.69a5.66,5.66,0,0,1-4.12,6.33l-2.55.67-35.18-11.61a25.09,25.09,0,0,1-8.92-5.18l-11.69-6.17a2.9,2.9,0,0,1-1.36-3.52l10.84-31.2A2.88,2.88,0,0,1,543.35,178.75Z" transform="translate(-11.07 -65.49)"/><path class="cls-8" d="M334.37,318.49l2.8-13.86,13-5.56a1.94,1.94,0,0,0,.2-3.48L338,288.65l-1.26-14.09a1.94,1.94,0,0,0-3.25-1.26l-10.41,9.57-13.79-3.15a2,2,0,0,0-2.2,2.71L313,295.29l-7.26,12.14a1.94,1.94,0,0,0,1.89,2.92l14.05-1.62,9.3,10.65A1.94,1.94,0,0,0,334.37,318.49Z" transform="translate(-11.07 -65.49)"/><path class="cls-11" d="M164.65,659s-17.34,12.49-20.07,16.22c-3.93,5.37,29.37,15.42,25.74,9.13-.84-1.45-3.24-6.31-3.34-6.79-.56-2.56,6.5-9.46,6.5-9.46Z" transform="translate(-11.07 -65.49)"/><path class="cls-13" d="M179.32,694.88l-11.77-16.64s-7.35-1.71-14.89-10.19a27.59,27.59,0,0,0-10.95,8.2,192.35,192.35,0,0,0,20,18A55.71,55.71,0,0,0,178.87,704C188.82,707.39,179.32,694.88,179.32,694.88Z" transform="translate(-11.07 -65.49)"/><path class="cls-11" d="M19.78,431.24s2.13,1.88,2.88,2.45,3.68,2.49,3.68,2.49,10.12,5.76,10.46,5,.33-2.94-.17-3.52-2-1.16-2.46-1.74a1.84,1.84,0,0,1,0-2.37c.64-.64,4.1,1.24,4.1,1.24a12.92,12.92,0,0,1,4,3.44c4.06,6.51,2.83,6.89,3.37,7.71.64,1,14.83,7.42,14.83,7.42S102.85,471,105.14,472h0c.31,2-.74,3.77-1.28,5.51-1,6.06-2.82,6.46-4.19,12.31-6.51-3.3-51.56-28.11-56.14-30.7,0,0-6.86-1.17-11.14-2.05s-8-3.59-9.2-4A40.64,40.64,0,0,1,15,448c-3.63-2.82,1.06-1.76,1.06-1.76s7.64,4.05,7.84,3.41-4.15-2.47-8.2-5.54c-1-.79-2.07-1.58-3-2.31-2.46-1.91-2-3.91.85-2.31a30.67,30.67,0,0,1,3.78,2.41A25.87,25.87,0,0,0,21,444a35.52,35.52,0,0,0,3.79,2.1c0-.15.61-.2-.47-1.08C23,444,19.76,442.31,18,440.63c-1-1-3.26-2.83-3.26-2.83s-2.88-3.45-2.74-3.68c.76-1.23,3.38.59,4.6,2.06a21.61,21.61,0,0,1,3.56,2.6s5.56,3.1,6,2.34c.18-.32-3-2.63-5.81-5.36-2.59-2.54-4.81-5.52-4.4-6.08C16.6,428.71,19.78,431.24,19.78,431.24Z" transform="translate(-11.07 -65.49)"/><path class="cls-9" d="M138.13,530.57l2.75,13.56,68.93,62.69-49.34,49.94,13.32,13.62s72.87-53.52,75.5-60.53c4-10.8-52.24-82.31-52.24-82.31Z" transform="translate(-11.07 -65.49)"/><path class="cls-11" d="M90.33,694.56s-13.9,15.15-16.63,18.88c-3.94,5.37,25.43,13.3,21.8,7-.84-1.44-3.24-6.31-3.34-6.79-.56-2.56,6.5-9.45,6.5-9.45Z" transform="translate(-11.07 -65.49)"/><path class="cls-13" d="M111,720l-19.14-7s-7.24,3.29-18.27.6A25.29,25.29,0,0,0,69.44,726s36.28,4.63,46.37,1.74S111,720,111,720Z" transform="translate(-11.07 -65.49)"/><path class="cls-8" d="M140.49,536.85l3.1,85.56-61.17,75L99,706.46s67.66-58.07,75.09-74.25c4.61-10,20.11-100.72,20.11-100.72Z" transform="translate(-11.07 -65.49)"/><path class="cls-2" d="M196.09,529.83c-5.6-12.66-5-103.37-26.77-124.61-7.68,1.29-13.16,2-14.44,2.36-1.14,9.34-2.39,43.63-3.16,75.06-.51,20.93,0,42.89-2.56,54.46C147.56,544.28,201.22,541.39,196.09,529.83Z" transform="translate(-11.07 -65.49)"/><path class="cls-4" d="M137,412.26c-6.12,1.4-10.63,2.38-18.66,14.24-7.69,11.35-24.75,38.29-24.75,38.29l-44.95-20-2.1,22.76s50.85,26.44,58,24.05,27.35-31.87,28.84-33.86c.35-.46-1.69,31.5-1.69,36.6S122,544,122,544s24.73,6.09,29.56-5c14.8-33.91,3.44-131.43,3.44-131.43S141.44,411.25,137,412.26Z" transform="translate(-11.07 -65.49)"/><path class="cls-11" d="M229.36,315.18c-1.89-1.58-2.71-5.37-3-7.81l-.85-3.24c.77-.31,15.76-2.44,20.28-2.56a8.25,8.25,0,0,1,.52,3.41c-.67,3.7-5.39,27.69-5.39,27.69l-12.91.25S230.8,318.7,229.36,315.18Z" transform="translate(-11.07 -65.49)"/><path class="cls-4" d="M174.37,410.53s8.86,25.2,16.15,21.57,48.24-45.38,48.65-47.4,3.24-53.26,3.24-53.26l-16.2-3.22-9.32,42s-30,28.65-36,31.47A11.27,11.27,0,0,0,174.37,410.53Z" transform="translate(-11.07 -65.49)"/><path class="cls-4" d="M198.29,535.89a27.46,27.46,0,0,0,10-1.66s-9.33-52.63-14.76-104.82c-2.15-20.61-4.14-29.06-12.64-27.57-2.46.43-9.12,3-11.54,3.38,21.37,60.47,21.44,107,24.47,120.51C195.31,532.51,196.63,535.93,198.29,535.89Z" transform="translate(-11.07 -65.49)"/><path class="cls-14" d="M167.06,396.08l2.24,9.14s.51,7.95-3.18,8.67c-4.45.86-11.07-5.8-11.07-5.8l-3.83-25.77Z" transform="translate(-11.07 -65.49)"/><path class="cls-11" d="M167.06,396.08l2.24,9.14s.51,7.95-3.18,8.67c-4.45.86-11.07-5.8-11.07-5.8l-3.83-25.77Z" transform="translate(-11.07 -65.49)"/><path class="cls-15" d="M151.26,382.44l15.8,13.64,1.68,6.83C162.69,401.45,154.08,394.8,151.26,382.44Z" transform="translate(-11.07 -65.49)"/><path class="cls-11" d="M167.12,358.73a9.32,9.32,0,0,1,8.6,6.46,80.81,80.81,0,0,1,3.45,13.22c1.67,9.91-4,19-8.88,19.71s-16.6-2.53-19.19-16.57c-1.11-6-2.57-13.91,2.38-18.05A22.2,22.2,0,0,1,167.12,358.73Z" transform="translate(-11.07 -65.49)"/><path class="cls-13" d="M152.69,392.25s-17.3-15.43-18.06-27.47,10.37-18.51,19.89-18.85a65.68,65.68,0,0,1,11.65.6c9.53,1.21,15.71,5.43,13.53,13.24-2.92,10.49-22.7,1.64-26.75,4.9-3.34,2.69,2.08,9.15-1.17,11.61-3.05,2.32-1.49,1.53-.48,5.94A78.71,78.71,0,0,1,152.69,392.25Z" transform="translate(-11.07 -65.49)"/><path class="cls-11" d="M146,378.28c.43,2.88,2.2,5,3.94,4.76s2.82-2.81,2.39-5.7-2.19-5-3.94-4.76S145.59,375.39,146,378.28Z" transform="translate(-11.07 -65.49)"/><path class="cls-15" d="M230.24,304.1a20.83,20.83,0,0,1,5.59,5.28s7.3-4.68,7-6.16c-.34-2-7.8,1.68-7.8,1.68Z" transform="translate(-11.07 -65.49)"/><path class="cls-1" d="M42,207.19,239.11,308.67c10.61,5.46,24,.54,29.95-11l50.33-97.75c5.93-11.52,2.15-25.29-8.46-30.75L113.85,67.71c-10.6-5.46-24-.54-29.95,11L33.58,176.44C27.64,188,31.43,201.73,42,207.19Z" transform="translate(-11.07 -65.49)"/><rect class="cls-13" x="143.41" y="87.61" width="33.35" height="264.87" transform="translate(-119.9 196.15) rotate(-62.76)"/><rect class="cls-2" x="99.29" y="93.26" width="58.4" height="32.39" transform="translate(53.42 -112.22) rotate(27.29)"/><path class="cls-11" d="M230.18,303.94c-.34-.92-1-2.22-.68-2.73,2.1-3.21-.17-6.7-1.7-4-.88,1.59-2.44,5.08-2.31,6.89.1,1.32,1.43,6.33,1.43,6.33S232.13,309.2,230.18,303.94Z" transform="translate(-11.07 -65.49)"/><path class="cls-11" d="M823.87,641.61s-1.21,15.11-.23,20c.53,2.63,3.47,8,2.12,10.51a6.66,6.66,0,0,1-2.89,3.09l-34.89.56c-1.9,0-.65-1.18.89-2.28,2.51-1.82,4.53-3,12.54-6.83.53-.25,2.43-1.44,3.11-1.85a24,24,0,0,0,5-4.34c2.5-2.74,2.72-16,2.72-16Z" transform="translate(-11.07 -65.49)"/><path class="cls-13" d="M796.6,440.79s-15-7.39-12.12,8.69,24.87,196.93,24.87,196.93l20.58,1.14s2.63-60.3,2.05-69-4-22.05-4-22.05l-1.74-53.49-19.42-66Z" transform="translate(-11.07 -65.49)"/><path class="cls-13" d="M804.53,664.83c9.23,2.33,16.05.74,19.87-.77,1,2.74,2.29,6.18,1.59,8.17-.84,2.43-2,3.51-3,3.53-8.43.22-31,0-37.41.07a1,1,0,0,1-.82-1.7C786.35,672.26,803.84,665.24,804.53,664.83Z" transform="translate(-11.07 -65.49)"/><path class="cls-11" d="M784.48,332.11s-12.68-24.4-14.64-33.36-8.78-54.07-8.21-57,11.35-9.9,10-12.37-11.59-2.47-13.94-2.26-7.07,1.58-9.1,3.25,2.28,55.73,3.56,67.36,17,47.48,17,47.48Z" transform="translate(-11.07 -65.49)"/><path class="cls-11" d="M883.29,522.27s10.46-11,12.79-15.4c1.25-2.37,2.38-8.42,5-9.5a6.71,6.71,0,0,1,4.19-.58l27.45,21.55c1.49,1.18-.24,1.32-2.13,1.22-3.09-.17-5.42-.52-14-2.61-.57-.13-2.79-.41-3.59-.52a23.81,23.81,0,0,0-6.6.22c-3.68.55-12.23,10.75-12.23,10.75Z" transform="translate(-11.07 -65.49)"/><path class="cls-13" d="M912.94,516.43c-5.7-7.62-12-10.69-15.91-11.92,1-2.75,2-6.35,3.8-7.45,2.19-1.36,3.7-1.08,4.55-.43,6.68,5.15,24.17,19.21,29.22,23.2a1,1,0,0,1-.44,1.83C931.74,522.11,913.73,516.54,912.94,516.43Z" transform="translate(-11.07 -65.49)"/><path class="cls-13" d="M883.54,324.68C877,311,862.6,303.5,848.63,307.14a32.14,32.14,0,0,0-20.84-12.67c-15.91-2.26-36.44,5.46-34.35,22.08-5,11.62-3.8,27.63,6.25,35.48-1.85,15.27,13.47,28.82,31.59,27,7.29,10.07,20,16,31.83,13.67,2.85-.55,7.17-1.59,7.91-1.46-.93-.1,20.67,14,35.57-11.15C921.79,354.38,906.82,325.64,883.54,324.68Z" transform="translate(-11.07 -65.49)"/><path class="cls-4" d="M790.56,446.62s33.64-15,34.17-13.25c4.21,13.58,17.34,9.2,25.12,33.12,3.27,10,6.62,76.67,6.62,76.67s13.26-11,32.21-30.25c1.46-1.47,15.71,12.08,15.71,12.08-37.62,50.83-53.86,53.49-60.13,50.64-13.11-5.94-40.76-89.05-40.72-89C800.22,480.12,790.56,446.62,790.56,446.62Z" transform="translate(-11.07 -65.49)"/><path class="cls-11" d="M846.33,352.74s48.62-.06,59-.66c9.42-.55,46.78.4,48.25.23s11.12-16.52,12.72-14.77-5.37,8.11-3.21,9.76,25.35-2,25-.33c-.58,3.21-14.11,2.8-14.09,4.35s14.16-.87,15.12,1.7-13.61,1.05-14.19,2.2,13.51,3.25,12.07,5.64c-.79,1.3-12.49-2.17-12.43-.4s8.59,5.8,7.54,7.21-6.7-4.33-11.65-4.4-8.5-2.66-16.41-.49c-3.91,1.07-33.72,4.72-58.91,6.87-25.82,2.21-47,2.91-47,2.91Z" transform="translate(-11.07 -65.49)"/><path class="cls-1" d="M774.23,387.11c-.64-7.81.89-13.82,1.24-16.41-2.36-8.11-7.38-25.41-9.19-28.81,0,0,8.47-16.26,17.13-16.15,0,0,8.85,19.95,15.7,23.52a17.15,17.15,0,0,0,3.44,1c6.6,0,29.69-.74,34-.82l-2.43,32.75c-16.73,32.79-12.19,50-5.83,56.36,3,3-41.75,15.15-43.81,10.91C782.06,444.48,775.54,402.89,774.23,387.11Z" transform="translate(-11.07 -65.49)"/><path class="cls-1" d="M824.82,350.7c4.26-2,35.07-1,35.07-1s4.31,21.46.83,26.62c0,0-27.55,4.1-26.77,6.36Z" transform="translate(-11.07 -65.49)"/><path class="cls-11" d="M816.74,336.91s-.54,11.7,0,16.57-5,16.31-15.33,16.51-1.52-11-.61-15.77,2-23.57,2-23.57Z" transform="translate(-11.07 -65.49)"/><path class="cls-15" d="M802.8,330.65s-.26,4.36-.62,9.41c3.26,3.89,8.27,5.87,14.36,3.51.06-3.63.2-6.66.2-6.66Z" transform="translate(-11.07 -65.49)"/><path class="cls-11" d="M817.6,302a17.16,17.16,0,0,1,9.13,7.6c3.28,5.86,4.66,22.51-8,29.37s-21.26-4.66-20.69-15.29S801.92,299.07,817.6,302Z" transform="translate(-11.07 -65.49)"/><path class="cls-11" d="M795.56,320.2c.85,2.63,2.79,4.36,4.32,3.86s2.08-3,1.23-5.67-2.79-4.36-4.32-3.86S794.7,317.56,795.56,320.2Z" transform="translate(-11.07 -65.49)"/><path class="cls-13" d="M815.84,301.56s6.4,17.52,12.95,19.49,5.87,10.52,5.87,10.52,1.21-19.75-4.72-24.71S815.84,301.56,815.84,301.56Z" transform="translate(-11.07 -65.49)"/><path class="cls-11" d="M825.91,324.4c-1.07,2.7-.46,5.47,1.37,6.19s4.17-.88,5.23-3.58.45-5.47-1.37-6.19S827,321.7,825.91,324.4Z" transform="translate(-11.07 -65.49)"/><path class="cls-15" d="M746.78,234.56s14.25.62,15.92.62,6.54-5,6.54-5Z" transform="translate(-11.07 -65.49)"/><path class="cls-2" d="M793.4,148.11a55.3,55.3,0,1,1-77-13.49A55.29,55.29,0,0,1,793.4,148.11Z" transform="translate(-11.07 -65.49)"/><path class="cls-1" d="M786.12,153.22a46.4,46.4,0,1,1-64.64-11.32A46.39,46.39,0,0,1,786.12,153.22Z" transform="translate(-11.07 -65.49)"/><path class="cls-10" d="M753.5,212.52l-2-7.48a37.5,37.5,0,0,1-9.88.87,4.71,4.71,0,0,1-4.47-4.65V201a4.71,4.71,0,0,1,5-4.76,27.59,27.59,0,0,0,8.93-.84c4.49-1.22,7.09-3.78,6.24-6.93-.81-3-3.84-4.2-10.2-4.59-9.19-.55-16-2.94-18.06-10.57-1.87-6.93,1.54-13.68,9.51-17.61l-2-7.48,7.71-2.08,1.88,6.92a34.65,34.65,0,0,1,7.46-.9,4.7,4.7,0,0,1,4.71,4.65h0a4.72,4.72,0,0,1-4.81,4.78,24.88,24.88,0,0,0-7.18.88c-5.12,1.39-6.17,4-5.58,6.24.7,2.6,3.91,3.51,11.28,4.22,10.26.77,15.21,4.08,17.12,11.16s-1.44,14.33-10.07,18.36l2.17,8Z" transform="translate(-11.07 -65.49)"/><path class="cls-11" d="M762.7,235.18l5.88-5.28s-2.77-3.32-1.62-4c1.88-1,5.09,3,4.8,3.95S768,234,768,234Z" transform="translate(-11.07 -65.49)"/></svg>