<svg xmlns="http://www.w3.org/2000/svg" xmlns:xlink="http://www.w3.org/1999/xlink" viewBox="0 0 2844.02 2761.64"><defs><style>.cls-1{fill:#d8dee8;}.cls-2{isolation:isolate;}.cls-3,.cls-61{fill:#f4f7fa;}.cls-4{clip-path:url(#clip-path);}.cls-37,.cls-5,.cls-64{opacity:0.8;}.cls-5,.cls-50,.cls-61,.cls-63,.cls-74,.cls-86{mix-blend-mode:soft-light;}.cls-6{fill:url(#linear-gradient);}.cls-7{fill:url(#linear-gradient-2);}.cls-8{fill:url(#linear-gradient-3);}.cls-9{fill:url(#linear-gradient-4);}.cls-10{fill:url(#linear-gradient-5);}.cls-11,.cls-17,.cls-23,.cls-59,.cls-61,.cls-66,.cls-83,.cls-91{opacity:0.3;}.cls-11,.cls-17,.cls-20,.cls-23,.cls-30,.cls-38,.cls-52,.cls-55,.cls-57,.cls-59,.cls-64,.cls-66,.cls-83,.cls-91{mix-blend-mode:multiply;}.cls-11{fill:url(#linear-gradient-6);}.cls-12{fill:url(#linear-gradient-7);}.cls-13{fill:url(#linear-gradient-8);}.cls-14{fill:url(#linear-gradient-9);}.cls-15{fill:url(#linear-gradient-10);}.cls-16{fill:url(#linear-gradient-11);}.cls-17{fill:url(#linear-gradient-12);}.cls-18{fill:url(#linear-gradient-13);}.cls-19{fill:url(#linear-gradient-14);}.cls-20{opacity:0.52;fill:url(#linear-gradient-15);}.cls-21{fill:url(#linear-gradient-16);}.cls-22{fill:url(#linear-gradient-17);}.cls-24{fill:url(#linear-gradient-18);}.cls-25{fill:url(#linear-gradient-19);}.cls-26{fill:url(#linear-gradient-20);}.cls-27{fill:#26264f;}.cls-28{fill:url(#linear-gradient-21);}.cls-29{fill:url(#linear-gradient-22);}.cls-30,.cls-38{opacity:0.35;}.cls-30{fill:url(#linear-gradient-23);}.cls-31{fill:#de8bdf;}.cls-32{fill:url(#linear-gradient-24);}.cls-33{fill:url(#linear-gradient-25);}.cls-34{fill:url(#linear-gradient-26);}.cls-35{fill:url(#linear-gradient-27);}.cls-36{fill:url(#linear-gradient-28);}.cls-39{fill:url(#linear-gradient-29);}.cls-40{fill:url(#linear-gradient-30);}.cls-41{fill:url(#linear-gradient-31);}.cls-42{fill:url(#linear-gradient-32);}.cls-43{fill:url(#linear-gradient-33);}.cls-44{fill:url(#linear-gradient-34);}.cls-45{fill:url(#linear-gradient-35);}.cls-46{fill:url(#linear-gradient-36);}.cls-47,.cls-50,.cls-74{fill:#fff;}.cls-48{fill:url(#linear-gradient-37);}.cls-49{fill:url(#linear-gradient-38);}.cls-51{fill:url(#linear-gradient-39);}.cls-52{opacity:0.4;fill:url(#linear-gradient-40);}.cls-53{fill:url(#linear-gradient-41);}.cls-54{fill:#e1e7ef;}.cls-55,.cls-57{opacity:0.2;}.cls-55{fill:url(#linear-gradient-42);}.cls-56{fill:#c5cad1;}.cls-57{fill:url(#linear-gradient-43);}.cls-58{fill:url(#linear-gradient-44);}.cls-59{fill:url(#linear-gradient-45);}.cls-60{fill:url(#linear-gradient-46);}.cls-62{fill:url(#linear-gradient-47);}.cls-63{fill:url(#linear-gradient-48);}.cls-64{fill:url(#linear-gradient-49);}.cls-65{fill:#eff0ef;}.cls-65,.cls-74{opacity:0.5;}.cls-66{fill:url(#linear-gradient-50);}.cls-67{fill:url(#linear-gradient-51);}.cls-68{fill:url(#linear-gradient-52);}.cls-69{fill:url(#linear-gradient-53);}.cls-70{fill:url(#linear-gradient-54);}.cls-71{fill:url(#linear-gradient-55);}.cls-72{fill:url(#linear-gradient-56);}.cls-73{fill:url(#linear-gradient-57);}.cls-75{fill:url(#linear-gradient-58);}.cls-76{fill:url(#linear-gradient-59);}.cls-77{fill:url(#linear-gradient-60);}.cls-78{fill:url(#linear-gradient-61);}.cls-79{fill:url(#linear-gradient-62);}.cls-80{fill:url(#linear-gradient-63);}.cls-81{fill:url(#linear-gradient-64);}.cls-82{fill:url(#linear-gradient-65);}.cls-83{fill:url(#linear-gradient-66);}.cls-84{fill:url(#linear-gradient-67);}.cls-85{fill:url(#linear-gradient-68);}.cls-87{fill:url(#linear-gradient-69);}.cls-88{fill:url(#linear-gradient-70);}.cls-89{fill:url(#linear-gradient-71);}.cls-90{fill:url(#linear-gradient-72);}.cls-91{fill:url(#linear-gradient-73);}.cls-92{fill:url(#linear-gradient-74);}.cls-93{fill:url(#linear-gradient-75);}</style><clipPath id="clip-path" transform="translate(-455.16 -455)"><path class="cls-1" d="M1686.31,2491.65c65.66,123.91,127.38,252.7,192.83,377.84,79.68-7.38,173.22-18,173.7-117.64.66-138.52,224.74-231.09,334.37-253,135.67-27.15,423.48-113.11,328.06-292.81-79.44-149.59-187.7-210.27-27.74-341.59s206.68-281.3,94.39-433.88c-118.17-160.58,12.55-429-177-511.63-330.26-143.91-463.17,406.34-394.63,682.87s-95.13,242.78-265.57,329.39c-232.7,118.24,16.37,308.57-54.91,433.82C1833.92,2463.17,1775.3,2457.29,1686.31,2491.65Z"/></clipPath><linearGradient id="linear-gradient" x1="2804.24" y1="1621.63" x2="2592.61" y2="1689.54" gradientUnits="userSpaceOnUse"><stop offset="0" stop-color="#fcb148"/><stop offset="0.05" stop-color="#fdba46"/><stop offset="0.14" stop-color="#ffc244"/><stop offset="0.32" stop-color="#ffc444"/><stop offset="0.48" stop-color="#fdb946"/><stop offset="0.78" stop-color="#f99c4d"/><stop offset="0.87" stop-color="#f8924f"/><stop offset="1" stop-color="#f8924f"/></linearGradient><linearGradient id="linear-gradient-2" x1="2975.43" y1="1410.97" x2="2786.5" y2="1827.78" gradientUnits="userSpaceOnUse"><stop offset="0" stop-color="#ffdb44"/><stop offset="1" stop-color="#feef06"/></linearGradient><linearGradient id="linear-gradient-3" x1="2940.68" y1="1851.08" x2="2904.23" y2="1651.93" xlink:href="#linear-gradient"/><linearGradient id="linear-gradient-4" x1="2863.39" y1="1528.73" x2="3013.62" y2="1847.65" xlink:href="#linear-gradient"/><linearGradient id="linear-gradient-5" x1="2857.4" y1="1460.11" x2="2932.95" y2="1743.23" xlink:href="#linear-gradient-2"/><linearGradient id="linear-gradient-6" x1="2819.19" y1="1549.37" x2="2969.12" y2="1867.65" xlink:href="#linear-gradient"/><linearGradient id="linear-gradient-7" x1="2852.93" y1="1102.66" x2="2597.98" y2="1184.48" xlink:href="#linear-gradient"/><linearGradient id="linear-gradient-8" x1="3059.17" y1="848.88" x2="2831.57" y2="1351.02" xlink:href="#linear-gradient-2"/><linearGradient id="linear-gradient-9" x1="3017.31" y1="1379.09" x2="2973.39" y2="1139.17" xlink:href="#linear-gradient"/><linearGradient id="linear-gradient-10" x1="2924.19" y1="990.76" x2="3105.18" y2="1374.96" xlink:href="#linear-gradient"/><linearGradient id="linear-gradient-11" x1="2916.98" y1="908.08" x2="3007.99" y2="1249.16" xlink:href="#linear-gradient-2"/><linearGradient id="linear-gradient-12" x1="2870.95" y1="1015.62" x2="3051.57" y2="1399.04" xlink:href="#linear-gradient"/><linearGradient id="linear-gradient-13" x1="936.96" y1="1749" x2="965.64" y2="2121.83" gradientUnits="userSpaceOnUse"><stop offset="0" stop-color="#e38ddd"/><stop offset="1" stop-color="#9571f6"/></linearGradient><linearGradient id="linear-gradient-14" x1="380.24" y1="2094.05" x2="657.67" y2="2559.28" gradientUnits="userSpaceOnUse"><stop offset="0" stop-color="#ff9085"/><stop offset="1" stop-color="#fb6fbb"/></linearGradient><linearGradient id="linear-gradient-15" x1="423.14" y1="2068.47" x2="700.57" y2="2533.7" xlink:href="#linear-gradient-14"/><linearGradient id="linear-gradient-16" x1="408.04" y1="1826.46" x2="1189.11" y2="2428.27" xlink:href="#linear-gradient-14"/><linearGradient id="linear-gradient-17" x1="1016.68" y1="1580.12" x2="1096.35" y2="2088.05" xlink:href="#linear-gradient-13"/><linearGradient id="linear-gradient-18" x1="873.29" y1="2268.36" x2="1654.37" y2="2870.17" xlink:href="#linear-gradient-14"/><linearGradient id="linear-gradient-19" x1="840.71" y1="2033.41" x2="853.54" y2="2038.17" gradientTransform="translate(1707.92 -24.58) rotate(45)" xlink:href="#linear-gradient-13"/><linearGradient id="linear-gradient-20" x1="1255.56" y1="2030.46" x2="1268.38" y2="2035.22" gradientTransform="translate(1827.34 -318.78) rotate(45)" xlink:href="#linear-gradient-13"/><linearGradient id="linear-gradient-21" x1="1195.87" y1="1758.2" x2="3337.2" y2="1676.34" gradientTransform="matrix(1, 0, 0.12, 1, -223.9, -3.76)" gradientUnits="userSpaceOnUse"><stop offset="0" stop-color="#444b8c"/><stop offset="1" stop-color="#26264f"/></linearGradient><linearGradient id="linear-gradient-22" x1="2123.75" y1="942.01" x2="63.45" y2="5215.45" gradientUnits="userSpaceOnUse"><stop offset="0" stop-color="#ffc444"/><stop offset="1" stop-color="#f36f56"/></linearGradient><linearGradient id="linear-gradient-23" x1="2131.16" y1="945.59" x2="70.87" y2="5219.02" xlink:href="#linear-gradient-22"/><linearGradient id="linear-gradient-24" x1="1214.11" y1="756.31" x2="1365.79" y2="756.31" xlink:href="#linear-gradient-14"/><linearGradient id="linear-gradient-25" x1="1516" y1="756.31" x2="1667.68" y2="756.31" xlink:href="#linear-gradient-14"/><linearGradient id="linear-gradient-26" x1="1817.89" y1="756.31" x2="1969.56" y2="756.31" xlink:href="#linear-gradient-14"/><linearGradient id="linear-gradient-27" x1="592.29" y1="498.47" x2="2277.55" y2="498.47" xlink:href="#linear-gradient-14"/><linearGradient id="linear-gradient-28" x1="2575.71" y1="1262.11" x2="2725.83" y2="1262.11" xlink:href="#linear-gradient-14"/><linearGradient id="linear-gradient-29" x1="1355.45" y1="2210.76" x2="2185.47" y2="2210.76" xlink:href="#linear-gradient-22"/><linearGradient id="linear-gradient-30" x1="1397.03" y1="2446.32" x2="2199.24" y2="2446.32" xlink:href="#linear-gradient-22"/><linearGradient id="linear-gradient-31" x1="1378.13" y1="1645.34" x2="2057.54" y2="1645.34" xlink:href="#linear-gradient-22"/><linearGradient id="linear-gradient-32" x1="1432.89" y1="1810.76" x2="2020.99" y2="1810.76" xlink:href="#linear-gradient-22"/><linearGradient id="linear-gradient-33" x1="1450.19" y1="1567.48" x2="1498.49" y2="1567.48" xlink:href="#linear-gradient-22"/><linearGradient id="linear-gradient-34" x1="1471.96" y1="1474.99" x2="1680.52" y2="1474.99" xlink:href="#linear-gradient-22"/><linearGradient id="linear-gradient-35" x1="1935.67" y1="1569.38" x2="1979.27" y2="1569.38" xlink:href="#linear-gradient-22"/><linearGradient id="linear-gradient-36" x1="1724.5" y1="1476.56" x2="1958.76" y2="1476.56" xlink:href="#linear-gradient-22"/><linearGradient id="linear-gradient-37" x1="740.85" y1="1061.79" x2="1388.12" y2="1061.79" gradientTransform="translate(-66.22)" gradientUnits="userSpaceOnUse"><stop offset="0" stop-color="#311944"/><stop offset="1" stop-color="#893976"/></linearGradient><linearGradient id="linear-gradient-38" x1="1258.92" y1="721.57" x2="921.93" y2="1465.05" gradientTransform="translate(-66.22)" gradientUnits="userSpaceOnUse"><stop offset="0" stop-color="#aa80f9"/><stop offset="1" stop-color="#6165d7"/></linearGradient><linearGradient id="linear-gradient-39" x1="753.67" y1="1046.82" x2="1340.99" y2="1046.82" gradientTransform="matrix(1, 0, 0, 1, 0, 0)" xlink:href="#linear-gradient-38"/><linearGradient id="linear-gradient-40" x1="980.35" y1="969.43" x2="1242.16" y2="1525.2" xlink:href="#linear-gradient-38"/><linearGradient id="linear-gradient-41" x1="1160.15" y1="2537.98" x2="1075.26" y2="3698.15" gradientTransform="matrix(1, 0, 0, 1, 0, 0)" xlink:href="#linear-gradient-38"/><linearGradient id="linear-gradient-42" x1="762.11" y1="2866.64" x2="835.21" y2="2866.64" gradientTransform="matrix(1, 0, 0, 1, 0, 0)" xlink:href="#linear-gradient-38"/><linearGradient id="linear-gradient-43" x1="561.83" y1="2265.1" x2="583.86" y2="2265.1" gradientTransform="matrix(1, 0, 0, 1, 0, 0)" xlink:href="#linear-gradient-38"/><linearGradient id="linear-gradient-44" x1="987.74" y1="2913.67" x2="1452.46" y2="2913.67" gradientTransform="matrix(1, 0, 0, 1, 0, 0)" xlink:href="#linear-gradient-21"/><linearGradient id="linear-gradient-45" x1="987.74" y1="2956.43" x2="1110.63" y2="2956.43" gradientTransform="matrix(1, 0, 0, 1, 0, 0)" xlink:href="#linear-gradient-21"/><linearGradient id="linear-gradient-46" x1="1071.91" y1="2992.44" x2="1520.32" y2="2992.44" gradientTransform="matrix(1, 0, 0, 1, 0, 0)" xlink:href="#linear-gradient-38"/><linearGradient id="linear-gradient-47" x1="1124.5" y1="2992.44" x2="1467.73" y2="2992.44" gradientTransform="matrix(1, 0, 0, 1, 0, 0)" xlink:href="#linear-gradient-21"/><linearGradient id="linear-gradient-48" x1="1124.5" y1="2978.65" x2="1440.16" y2="2978.65" gradientTransform="matrix(1, 0, 0, 1, 0, 0)" xlink:href="#linear-gradient-21"/><linearGradient id="linear-gradient-49" x1="1198.4" y1="2975.03" x2="1359" y2="2975.03" gradientTransform="translate(2478.18 -32.81) rotate(45)" gradientUnits="userSpaceOnUse"><stop offset="0" stop-color="#40447e"/><stop offset="1" stop-color="#3c3b6b"/></linearGradient><linearGradient id="linear-gradient-50" x1="762.11" y1="2976.97" x2="1013.72" y2="2976.97" gradientTransform="matrix(1, 0, 0, 1, 0, 0)" xlink:href="#linear-gradient-38"/><linearGradient id="linear-gradient-51" x1="1640.25" y1="2247.31" x2="2815.49" y2="2247.31" gradientTransform="matrix(1, 0, 0, 1, 0, 0)" xlink:href="#linear-gradient-49"/><linearGradient id="linear-gradient-52" x1="2225.54" y1="3168.25" x2="2321.34" y2="2950.34" gradientTransform="matrix(1, 0, 0, 1, 0, 0)" xlink:href="#linear-gradient-38"/><linearGradient id="linear-gradient-53" x1="2475.13" y1="3043.26" x2="3271.41" y2="3043.26" xlink:href="#linear-gradient-14"/><linearGradient id="linear-gradient-54" x1="2455.92" y1="3043.63" x2="3285.42" y2="3043.63" gradientTransform="matrix(1, 0, 0, 1, 0, 0)" xlink:href="#linear-gradient-38"/><linearGradient id="linear-gradient-55" x1="2364.62" y1="2580.69" x2="2196.66" y2="3146.44" gradientTransform="matrix(1, 0, 0, 1, 0, 0)" xlink:href="#linear-gradient-49"/><linearGradient id="linear-gradient-56" x1="2475.13" y1="2805.25" x2="3271.41" y2="2805.25" xlink:href="#linear-gradient-14"/><linearGradient id="linear-gradient-57" x1="2455.92" y1="2807.7" x2="3285.42" y2="2807.7" gradientTransform="matrix(1, 0, 0, 1, 0, 0)" xlink:href="#linear-gradient-49"/><linearGradient id="linear-gradient-58" x1="3551.86" y1="2527.9" x2="2581.38" y2="1975.86" gradientUnits="userSpaceOnUse"><stop offset="0" stop-color="#311944"/><stop offset="1" stop-color="#6b3976"/></linearGradient><linearGradient id="linear-gradient-59" x1="1979.69" y1="2167.85" x2="1999.98" y2="2493.93" gradientTransform="matrix(-1, 0.06, 0.06, 1, 4167.12, -125.65)" xlink:href="#linear-gradient-14"/><linearGradient id="linear-gradient-60" x1="-2030.47" y1="3094.16" x2="-1924.56" y2="3094.16" gradientTransform="matrix(1, -0.06, 0.06, 1, 3937.52, -111.47)" xlink:href="#linear-gradient-58"/><linearGradient id="linear-gradient-61" x1="-1980.52" y1="3135.89" x2="-1822.52" y2="2661.88" gradientTransform="matrix(1, -0.06, 0.06, 1, 3937.52, -111.47)" xlink:href="#linear-gradient-22"/><linearGradient id="linear-gradient-62" x1="-2013.61" y1="2899.7" x2="-1948.85" y2="2899.7" gradientTransform="matrix(1, -0.06, 0.06, 1, 3937.52, -111.47)" xlink:href="#linear-gradient-58"/><linearGradient id="linear-gradient-63" x1="-2051.15" y1="3077.54" x2="-1945.39" y2="2760.26" gradientTransform="matrix(1, -0.06, 0.06, 1, 3937.52, -111.47)" xlink:href="#linear-gradient-22"/><linearGradient id="linear-gradient-64" x1="-1920.84" y1="2542.99" x2="-1841.96" y2="2999.05" gradientTransform="matrix(1, -0.06, 0.06, 1, 3937.52, -111.47)" gradientUnits="userSpaceOnUse"><stop offset="0" stop-color="#ab316d"/><stop offset="1" stop-color="#792d3d"/></linearGradient><linearGradient id="linear-gradient-65" x1="-1809.44" y1="3083.48" x2="-1697.28" y2="2728.49" xlink:href="#linear-gradient-64"/><linearGradient id="linear-gradient-66" x1="-1809.43" y1="3083.49" x2="-1697.27" y2="2728.5" xlink:href="#linear-gradient-64"/><linearGradient id="linear-gradient-67" x1="-1651.6" y1="2496.96" x2="-1572.9" y2="2951.95" xlink:href="#linear-gradient-64"/><linearGradient id="linear-gradient-68" x1="-1765.4" y1="2214.47" x2="-1066.27" y2="2470.5" gradientTransform="matrix(1, -0.06, 0.06, 1, 3937.52, -111.47)" xlink:href="#linear-gradient-14"/><linearGradient id="linear-gradient-69" x1="3658.63" y1="1821.48" x2="3666.67" y2="1607.38" gradientTransform="matrix(-0.97, 0.24, 0.24, 0.97, 5668.13, -461.51)" xlink:href="#linear-gradient-22"/><linearGradient id="linear-gradient-70" x1="3656.12" y1="1632.48" x2="3652.68" y2="1909.68" gradientTransform="matrix(-0.97, 0.24, 0.24, 0.97, 5668.13, -461.51)" xlink:href="#linear-gradient-22"/><linearGradient id="linear-gradient-71" x1="-276.41" y1="2490.98" x2="29.13" y2="2490.98" gradientTransform="matrix(1, -0.06, 0.06, 1, 2430.27, -20.38)" xlink:href="#linear-gradient-49"/><linearGradient id="linear-gradient-72" x1="-471.81" y1="2298.25" x2="-271.49" y2="2496.97" gradientTransform="matrix(1, -0.06, 0.06, 1, 2430.27, -20.38)" xlink:href="#linear-gradient-49"/><linearGradient id="linear-gradient-73" x1="-471.81" y1="2298.25" x2="-271.49" y2="2496.97" gradientTransform="matrix(1, -0.06, 0.06, 1, 2430.27, -20.38)" xlink:href="#linear-gradient-49"/><linearGradient id="linear-gradient-74" x1="1532.26" y1="2306.46" x2="1550.96" y2="2607.01" gradientTransform="matrix(-1, -0.06, -0.06, 1, 4389.56, -49.05)" xlink:href="#linear-gradient-14"/><linearGradient id="linear-gradient-75" x1="1825.06" y1="2431.08" x2="1723.49" y2="2526.79" gradientTransform="matrix(-1, 0.06, 0.06, 1, 4167.12, -125.65)" xlink:href="#linear-gradient-22"/></defs><title>merchant highlights</title><g class="cls-2"><g id="Illustration"><path class="cls-3" d="M1921.42,455.62C1193.36,434.42,562.71,955.4,467.43,1639c-104.17,747.41,469.2,1419.89,1174.7,1527.6,877.53,134,1728.69-641.07,1652.27-1481.87C3236.82,1051.24,2661.51,477.18,1921.42,455.62Z" transform="translate(-455.16 -455)"/><path class="cls-1" d="M2021.49,2790.58c-20.38.91-65.52-15.07-75.57-24.09-66.88-60-199.4-164.23-210.25-258.6-1.85-16.12,66.85-43.41,74.28-59.8,39.58-28,55-35.3,79.58-80.43,72.44-133.24-177.9-315.8,55.13-436.16,170.69-88.17,334.11-52.65,265.61-329.6s64.39-826.73,394.66-683c189.54,82.5,58.8,351.09,177,511.64,112.32,152.56,65.56,302.53-94.4,433.88s-51.64,191.85,27.74,341.62c95.36,179.91-192.15,265.07-328.24,293.06C2277.42,2521.65,2013.57,2653,2021.49,2790.58Z" transform="translate(-455.16 -455)"/><path class="cls-1" d="M1686.31,2491.65c65.66,123.91,127.38,252.7,192.83,377.84,79.68-7.38,173.22-18,173.7-117.64.66-138.52,224.74-231.09,334.37-253,135.67-27.15,423.48-113.11,328.06-292.81-79.44-149.59-187.7-210.27-27.74-341.59s206.68-281.3,94.39-433.88c-118.17-160.58,12.55-429-177-511.63-330.26-143.91-463.17,406.34-394.63,682.87s-95.13,242.78-265.57,329.39c-232.7,118.24,16.37,308.57-54.91,433.82C1833.92,2463.17,1775.3,2457.29,1686.31,2491.65Z" transform="translate(-455.16 -455)"/><g class="cls-4"><g class="cls-5"><path class="cls-1" d="M1844.45,2644.47l-2.06-2.85c541.34-392,791.44-1062.68,669-1794.08l3.47-.58c58,346.49,30.92,692.5-78.28,1000.63-56.25,158.73-133.83,306.1-230.58,438A1640.78,1640.78,0,0,1,1844.45,2644.47Z" transform="translate(-455.16 -455)"/><path class="cls-1" d="M2124.92,2384.14l-1.58-3.14c171.73-86.17,459.15-134.89,640.7-108.61l-.5,3.48C2582.59,2249.68,2296.1,2298.25,2124.92,2384.14Z" transform="translate(-455.16 -455)"/><path class="cls-1" d="M1949.73,2566.4l-2.77-2.17c61.35-78.51,80.64-185,57.36-316.51-17.06-96.38-56.18-203.71-116.27-319l3.12-1.62c60.25,115.62,99.48,223.29,116.61,320C2031.25,2379.64,2011.71,2487.07,1949.73,2566.4Z" transform="translate(-455.16 -455)"/><path class="cls-1" d="M2450.45,1803.14l-2.87-2c107.81-153.65,293-222.11,429.32-252.49l.76,3.43C2741.92,1582.31,2557.62,1650.41,2450.45,1803.14Z" transform="translate(-455.16 -455)"/><path class="cls-1" d="M2537.46,1382.35l-3.5.36c-21.33-210.67-173.09-373-261.66-451l2.32-2.64C2363.57,1007.4,2516,1170.49,2537.46,1382.35Z" transform="translate(-455.16 -455)"/></g></g><path class="cls-6" d="M3047.87,1614c0,98.17-76.77,175.41-174.89,172.39-102.11-3.13-188-91.32-188-196.86s85.88-182.14,188-171.51C2971.1,1428.19,3047.87,1515.77,3047.87,1614Z" transform="translate(-455.16 -455)"/><path class="cls-7" d="M3074.38,1605.48c0,98.18-76.77,175.41-174.89,172.4-102.11-3.14-188-91.33-188-196.86s85.88-182.15,188-171.52C2997.61,1419.72,3074.38,1507.3,3074.38,1605.48Z" transform="translate(-455.16 -455)"/><path class="cls-8" d="M3066.68,1605c0,93.86-73.45,167.56-167.19,164.53-97.37-3.16-179.12-87.32-179.12-187.88s81.75-173.69,179.12-163.72C2993.23,1427.5,3066.68,1511.11,3066.68,1605Z" transform="translate(-455.16 -455)"/><path class="cls-9" d="M3061.16,1604.59c0,90.76-71.07,162-161.67,158.9-94-3.15-172.8-84.44-172.8-181.45s78.81-167.67,172.8-158.15C2990.09,1433.06,3061.16,1513.83,3061.16,1604.59Z" transform="translate(-455.16 -455)"/><path class="cls-10" d="M2898.57,1454.76h0a9.88,9.88,0,0,1,8.72,9.7v16.71a244.82,244.82,0,0,1,29,5q10.7,2.52,21.24,6a9.78,9.78,0,0,1,6.66,10l-2.06,21a7.85,7.85,0,0,1-11.21,6.52,123,123,0,0,0-14.25-5.31,129.33,129.33,0,0,0-26.88-5l-2.46-.2V1567q37.73,10.56,55.55,28.41t17.8,44.34q0,28.77-19.68,46.11t-55.68,19.6v18.44a8.38,8.38,0,0,1-8.73,8.52h-.15a9.28,9.28,0,0,1-8.76-9.25V1705l-3.89-.18a255.44,255.44,0,0,1-32.25-3.44,207.54,207.54,0,0,1-22.29-5.13,9.6,9.6,0,0,1-7-9.93l2.41-26.93c.52-5.82,6.37-9.21,11.91-7a175.31,175.31,0,0,0,19.6,6.44,172.24,172.24,0,0,0,31.34,5.23l.16-53.23c-24.14-6-42.22-14.82-54.09-26.54s-17.92-26.84-17.92-45.16q0-28.44,19.43-43.87c12.86-10.22,31.16-15.3,54.75-15.29v-17.08A7.89,7.89,0,0,1,2898.57,1454.76Zm-8.76,63.88q-11.19.83-17.44,6.15t-6.26,14.37a19.27,19.27,0,0,0,5.79,14.27q5.78,5.73,17.91,9.14Zm15.47,96.4v48.81q12.16,0,18.68-5.8t6.49-16.43q0-9.69-6-16.07T2905.28,1615Z" transform="translate(-455.16 -455)"/><path class="cls-11" d="M2870.24,1626.82c5.46-54,55-76.79,48.57-126.42-4-30.58-27.17-56.36-53-76.49-78.44,8.23-139.09,73.18-139.09,158.13,0,97,78.81,178.3,172.8,181.45a162.34,162.34,0,0,0,26.71-1.3C2888.87,1725.05,2865.54,1673.16,2870.24,1626.82Z" transform="translate(-455.16 -455)"/><path class="cls-12" d="M3146.44,1093.41c0,118.28-92.49,211.32-210.69,207.69-123-3.78-226.48-110-226.48-237.16s103.46-219.43,226.48-206.62C3054,869.63,3146.44,975.14,3146.44,1093.41Z" transform="translate(-455.16 -455)"/><path class="cls-13" d="M3178.38,1083.21c0,118.28-92.49,211.32-210.69,207.69-123-3.78-226.48-110-226.48-237.16s103.46-219.43,226.48-206.62C3085.89,859.43,3178.38,964.94,3178.38,1083.21Z" transform="translate(-455.16 -455)"/><path class="cls-14" d="M3169.1,1082.59c0,113.06-88.49,201.86-201.41,198.2-117.3-3.8-215.79-105.19-215.79-226.33s98.49-209.25,215.79-197.23C3080.61,868.8,3169.1,969.52,3169.1,1082.59Z" transform="translate(-455.16 -455)"/><path class="cls-15" d="M3162.45,1082.14c0,109.34-85.62,195.09-194.76,191.43-113.23-3.8-208.18-101.73-208.18-218.6s94.95-202,208.18-190.52C3076.83,875.5,3162.45,972.8,3162.45,1082.14Z" transform="translate(-455.16 -455)"/><path class="cls-16" d="M2966.57,901.64h0a11.91,11.91,0,0,1,10.51,11.68v20.13a296.31,296.31,0,0,1,34.89,6.06q12.89,3,25.59,7.2a11.77,11.77,0,0,1,8,12.08L3043.1,984a9.47,9.47,0,0,1-13.51,7.86,146.66,146.66,0,0,0-17.16-6.4,156.35,156.35,0,0,0-32.38-6l-3-.24v57.65c30.3,8.47,52.55,19.88,66.93,34.22s21.44,32.06,21.44,53.42q0,34.65-23.71,55.54-23.88,21-67.07,23.61v22.22a10.11,10.11,0,0,1-10.52,10.27H2964a11.17,11.17,0,0,1-10.55-11.14v-21.92l-4.68-.21a308.14,308.14,0,0,1-38.86-4.14,254.42,254.42,0,0,1-26.85-6.18,11.58,11.58,0,0,1-8.43-12l2.91-32.45c.63-7,7.68-11.1,14.35-8.47a212.14,212.14,0,0,0,23.61,7.76,207.22,207.22,0,0,0,37.76,6.3l.19-64.13c-29.08-7.19-50.86-17.85-65.16-32s-21.59-32.34-21.59-54.41q0-34.26,23.4-52.84c15.5-12.31,37.54-18.44,66-18.42V911.36A9.51,9.51,0,0,1,2966.57,901.64Zm-10.54,77q-13.49,1-21,7.41t-7.54,17.3a23.23,23.23,0,0,0,7,17.2q7,6.9,21.58,11Zm18.64,116.12v58.81q14.65,0,22.49-7t7.83-19.8q0-11.65-7.28-19.35T2974.67,1094.72Z" transform="translate(-455.16 -455)"/><path class="cls-17" d="M2932.44,1108.91c6.58-65,66.31-92.5,58.52-152.28-4.8-36.85-32.73-67.9-63.89-92.15-94.49,9.91-167.56,88.16-167.56,190.49,0,116.87,94.95,214.8,208.18,218.6a196.25,196.25,0,0,0,32.17-1.57C2954.89,1227.25,2926.79,1164.75,2932.44,1108.91Z" transform="translate(-455.16 -455)"/><path class="cls-18" d="M1191.28,2028.92a11.38,11.38,0,0,1-11.32-10.3c-10-104.58-44.06-203.94-96-279.79-46-67.19-100.8-107.29-146.58-107.29h-.15c-166.72.33-201.6,383.11-201.93,387a11.38,11.38,0,0,1-22.68-1.94c1.43-16.64,37.13-407.43,224.57-407.79h.2c54.08,0,114.34,42.7,165.35,117.19,54.09,79,89.56,182.14,99.89,290.49a11.38,11.38,0,0,1-10.25,12.41C1192,2028.9,1191.64,2028.92,1191.28,2028.92Z" transform="translate(-455.16 -455)"/><path class="cls-19" d="M496.71,2816.71l219.47,111.11,133-408.06L630.05,1972.69l-62.13,15.24-94.27,785.68A42.61,42.61,0,0,0,496.71,2816.71Z" transform="translate(-455.16 -455)"/><path class="cls-20" d="M849.16,2519.76,630.05,1972.69l-36.65,9a1192.34,1192.34,0,0,0,.6,176.93c14.69,186.25,63.47,238.09,39.84,368-19.65,108-62.56,122.71-58.81,195.4,4.09,79.17,59.31,145.46,125,197.6l16.2,8.19Z" transform="translate(-455.16 -455)"/><polygon class="cls-21" points="174.89 1517.69 993.21 1517.69 1264.03 2392.01 261.02 2472.82 174.89 1517.69"/><path class="cls-22" d="M883.55,2047.63a11.38,11.38,0,0,1-11.07-8.79c-2.33-9.91-56.09-244.19,19.72-359.16,21.72-33,52.08-53.07,90.22-59.8,196-34.53,316.63,386.38,321.67,404.31a11.38,11.38,0,0,1-21.92,6.16c-1.18-4.19-120-419.1-295.79-388-32.19,5.68-56.78,22-75.18,49.91-70.47,106.88-17.11,339.1-16.56,341.44a11.38,11.38,0,0,1-8.48,13.68A11.68,11.68,0,0,1,883.55,2047.63Z" transform="translate(-455.16 -455)"/><g class="cls-23"><path class="cls-24" d="M1448.37,1972.69h-406c-20,20.37-34.23,43.84-35.58,70.17-6.38,123.7,278,164.34,305.42,333.88,19.79,122.3-102,263.42-210.57,326.29-114.44,66.25-192,32.7-269.38,106.24-34,32.31-54.72,72.72-67,114.6L1719.19,2847Z" transform="translate(-455.16 -455)"/></g><circle class="cls-25" cx="883.63" cy="2049.35" r="31.81" transform="translate(-1645.46 770.06) rotate(-45)"/><circle class="cls-26" cx="1298.48" cy="2046.4" r="31.81" transform="translate(-1521.87 1062.54) rotate(-45)"/><path class="cls-27" d="M2137,691.77Q2263,1756.26,2388.91,2798.52c3.77,31.15-17.75,58.71-47.86,61.27q-506.19,48-1012.37,98.15c-60.2,2.92-93.25-30.72-97.13-64.39Q1101.92,1768.42,972.27,619.72c-3.87-34.39,25.27-64,85.46-61Q1566.41,595,2075.08,630.28C2105.4,632.29,2133.25,659.94,2137,691.77Z" transform="translate(-455.16 -455)"/><path class="cls-28" d="M2183.88,690.32q126.75,1069.12,253.49,2115.75c3.79,31.26-17.87,59-48.17,61.55q-525.61,44.52-1051.21,90.8c-32,2.84-61.37-22.49-65.27-56.33Q1142.26,1771.81,1011.81,617.68c-3.9-34.54,19.28-61.06,51.47-58.87q529.14,35.3,1058.28,69.74C2152.07,630.58,2180.09,658.34,2183.88,690.32Z" transform="translate(-455.16 -455)"/><path class="cls-29" d="M2163.53,806.92q117.39,990.54,234.78,1961.76c3.54,29.26-16.7,55.11-45,57.41q-494.31,40.42-988.61,82.39c-29.78,2.55-57.15-21.16-60.79-52.59q-120.62-1044-241.24-2108.36c-3.63-32.1,17.94-56.95,47.9-55.17q497.39,29,994.77,57.32C2133.81,751.3,2160,777.1,2163.53,806.92Z" transform="translate(-455.16 -455)"/><path class="cls-30" d="M2105.33,749.68q-491.49-28-983-56.64a751.39,751.39,0,0,0,57.57,186.23c108.69,235.8,268.35,248.78,330.82,454.26,64.36,211.69-80.78,277.94-9.87,469.07C1577.8,2010,1766.5,1980,1866.24,2207.49c86,196.09-24.7,285.72,64.19,404.88,97.43,130.61,277.68,86.33,464.77,130.57q-115.83-958.62-231.67-1936C2160,777.1,2133.81,751.3,2105.33,749.68Z" transform="translate(-455.16 -455)"/><path class="cls-31" d="M1626.73,662.63c1.34,11.48-6.38,20.27-17.23,19.65s-20.75-10.53-22.09-22.07,6.4-20.34,17.26-19.63S1625.4,651.13,1626.73,662.63Z" transform="translate(-455.16 -455)"/><ellipse class="cls-32" cx="1289.95" cy="756.31" rx="75.84" ry="89.47"/><ellipse class="cls-33" cx="1591.84" cy="756.31" rx="75.84" ry="89.47"/><ellipse class="cls-1" cx="1440.06" cy="756.31" rx="76.92" ry="89.47"/><ellipse class="cls-34" cx="1893.73" cy="756.31" rx="75.84" ry="89.47"/><path class="cls-1" d="M2274,1211.31c0,49.42-34.43,89.48-76.91,89.48s-76.92-40.06-76.92-89.48,34.43-89.47,76.92-89.47S2274,1161.9,2274,1211.31Z" transform="translate(-455.16 -455)"/><ellipse class="cls-1" cx="2043.83" cy="756.31" rx="76.92" ry="89.47"/><ellipse class="cls-1" cx="1138.17" cy="756.31" rx="76.92" ry="89.47"/><polygon class="cls-35" points="592.29 228.5 1062.9 768.43 2277.55 768.43 1688.97 296.89 592.29 228.5"/><polygon class="cls-3" points="592.29 228.5 1062.9 768.43 1215.09 768.43 718.88 236.4 592.29 228.5"/><polygon class="cls-3" points="854.8 244.87 1365.07 768.43 1515.41 768.43 991.73 253.41 854.8 244.87"/><polygon class="cls-3" points="1129.68 262.01 1666.11 768.43 1817.17 768.43 1268.67 270.68 1129.68 262.01"/><polygon class="cls-3" points="1549.85 288.21 1408.72 279.41 1968.6 768.43 2120.4 768.43 1549.85 288.21"/><path class="cls-36" d="M2575.71,1223.43c5,43.67,36.67,77.35,75.06,77.35s70-33.68,75.06-77.35Z" transform="translate(-455.16 -455)"/><g class="cls-37"><g class="cls-38"><path class="cls-39" d="M2185.33,2270.63c1.71,20.28-13.06,37.34-33,38.16l-731.49,30c-21.5.89-41.23-15.43-44-36.5l-21-157.41c-2.87-21.52,12.54-39.54,34.38-40.19l742.61-22c20.25-.6,38.06,15.73,39.8,36.43Z" transform="translate(-455.16 -455)"/><path class="cls-40" d="M2199.11,2434.43a34.43,34.43,0,0,1-32.7,37.72l-723.48,35.65c-21.26,1-40.75-14.79-43.5-35.42l-2.08-15.6c-2.76-20.73,12.37-38.35,33.76-39.31l727.76-32.65c19.86-.89,37.3,14.61,39,34.58Z" transform="translate(-455.16 -455)"/></g><g class="cls-23"><path class="cls-41" d="M2042,1679.63l-636.58,5c-10.71.09-20.44-7.92-21.72-17.89l-5.46-42.57c-1.28-10,6.42-18.17,17.2-18.17l639.94,0A18.94,18.94,0,0,1,2054,1623l3.52,39.69A15.33,15.33,0,0,1,2042,1679.63Z" transform="translate(-455.16 -455)"/><path class="cls-42" d="M1432.89,1700.33l81.3,205.49c5.06,12.78,18.63,21.41,32.9,20.94l416.58-13.63c13-.42,23.57-9.4,25.57-21.79L2021,1694.75Zm182.68,191.51c.94,8-5.27,14.78-13.87,15l-14.87.46c-8.64.27-16.44-6.06-17.4-14.15l-18.91-159.06c-1-8.24,5.34-15,14.09-15.11l15.07-.18c8.72-.1,16.55,6.48,17.5,14.68Zm82.25-2.41c.89,8-5.24,14.65-13.69,14.91l-14.62.45c-8.5.26-16.14-6-17-14l-18-157.72c-.93-8.18,5.31-14.89,13.92-15l14.81-.17c8.56-.1,16.23,6.42,17.14,14.56Zm80.87-2.38c.84,7.91-5.2,14.53-13.52,14.79l-14.37.44c-8.35.26-15.84-6-16.71-13.92L1717,1732c-.88-8.11,5.27-14.76,13.73-14.86l14.57-.17c8.42-.09,15.93,6.37,16.79,14.44Zm79.53-2.33c.8,7.85-5.18,14.41-13.35,14.66l-14.14.43c-8.21.26-15.55-5.92-16.37-13.81l-16.19-155.1c-.84-8,5.24-14.64,13.56-14.73L1826,1716c8.28-.09,15.65,6.32,16.46,14.32Zm78.21-2.3c.76,7.79-5.14,14.29-13.18,14.54l-13.9.43c-8.08.25-15.28-5.88-16.06-13.7L1878,1729.86c-.8-8,5.2-14.52,13.38-14.61l14.08-.16a16.16,16.16,0,0,1,16.14,14.2Z" transform="translate(-455.16 -455)"/><path class="cls-43" d="M1492.2,1584.56c-9,8.15-24.21,7.15-34.08-2.26s-10.63-23.75-1.6-31.92,24.31-7.08,34.15,2.38S1501.15,1576.42,1492.2,1584.56Z" transform="translate(-455.16 -455)"/><path class="cls-44" d="M1678.2,1382.59c-3.66-3.71-10.35-3.34-14.94.82L1476,1553.17c-4.7,4.26-5.42,10.69-1.6,14.34s10.7,3.16,15.39-1.1l186.72-169.57C1681.1,1392.67,1681.86,1386.3,1678.2,1382.59Z" transform="translate(-455.16 -455)"/><path class="cls-45" d="M1944.78,1585.56c9.78,7.79,23.38,6.88,30.39-2s4.81-22.43-4.92-30.27-23.41-7-30.46,1.92S1935,1577.73,1944.78,1585.56Z" transform="translate(-455.16 -455)"/><path class="cls-46" d="M1725.77,1383.69c2.84-3.54,9.56-2.86,15,1.51l212.43,170.54c5.11,4.1,7,10.22,4.32,13.67s-9.07,2.93-14.19-1.17L1730.49,1398C1725,1393.65,1722.92,1387.24,1725.77,1383.69Z" transform="translate(-455.16 -455)"/></g><path class="cls-47" d="M2197.77,2258.19c1.71,20.28-13.07,37.35-33,38.16l-731.49,30c-21.5.88-41.24-15.44-44-36.5l-21-157.42c-2.87-21.52,12.54-39.53,34.38-40.18l742.61-22c20.26-.6,38.06,15.74,39.8,36.44Z" transform="translate(-455.16 -455)"/><path class="cls-47" d="M2211.55,2422a34.44,34.44,0,0,1-32.71,37.72l-723.48,35.65c-21.25,1-40.74-14.79-43.49-35.42l-2.08-15.6c-2.76-20.72,12.37-38.34,33.75-39.3l727.76-32.65c19.87-.89,37.31,14.6,39,34.57Z" transform="translate(-455.16 -455)"/><path class="cls-47" d="M2050.58,1671.08l-636.58,5c-10.71.09-20.45-7.92-21.72-17.89l-5.46-42.56c-1.28-10,6.42-18.18,17.2-18.18l639.94,0a18.94,18.94,0,0,1,18.54,16.94l3.52,39.69A15.33,15.33,0,0,1,2050.58,1671.08Z" transform="translate(-455.16 -455)"/><path class="cls-47" d="M1441.44,1691.78l81.3,205.49c5.06,12.79,18.63,21.41,32.9,20.94l416.58-13.63c13-.42,23.57-9.4,25.57-21.79l31.75-196.59Zm182.68,191.51c.93,8-5.27,14.78-13.87,15l-14.87.46c-8.64.27-16.44-6.06-17.4-14.15l-18.91-159.06c-1-8.24,5.34-15,14.09-15.11l15.07-.18c8.72-.1,16.55,6.48,17.5,14.68Zm82.25-2.41c.89,8-5.24,14.65-13.69,14.91l-14.62.45c-8.5.26-16.14-6-17-14l-18-157.72c-.93-8.18,5.31-14.89,13.91-15l14.82-.17c8.56-.1,16.23,6.42,17.14,14.56Zm80.87-2.38c.84,7.91-5.2,14.53-13.52,14.79l-14.37.44c-8.36.26-15.84-6-16.71-13.92l-17.07-156.4c-.88-8.11,5.27-14.76,13.73-14.86l14.57-.17c8.42-.09,15.93,6.37,16.79,14.44Zm79.53-2.33c.8,7.85-5.18,14.41-13.35,14.66l-14.14.44c-8.21.25-15.55-5.93-16.37-13.81l-16.19-155.11c-.84-8,5.24-14.64,13.56-14.73l14.31-.17c8.28-.09,15.65,6.32,16.46,14.32Zm78.21-2.3c.76,7.79-5.14,14.29-13.18,14.54l-13.9.43c-8.08.25-15.28-5.88-16.06-13.7l-15.33-153.83c-.8-8,5.2-14.51,13.38-14.61l14.08-.16a16.17,16.17,0,0,1,16.14,14.2Z" transform="translate(-455.16 -455)"/><path class="cls-47" d="M1500.75,1576c-9,8.15-24.21,7.15-34.08-2.26s-10.63-23.75-1.6-31.92,24.31-7.08,34.15,2.38S1509.7,1567.87,1500.75,1576Z" transform="translate(-455.16 -455)"/><path class="cls-47" d="M1686.75,1374c-3.66-3.71-10.35-3.34-14.94.82l-187.25,169.76c-4.7,4.27-5.42,10.69-1.6,14.34s10.7,3.16,15.39-1.1l186.72-169.57C1689.65,1384.13,1690.41,1377.75,1686.75,1374Z" transform="translate(-455.16 -455)"/><path class="cls-47" d="M1953.33,1577c9.78,7.8,23.38,6.89,30.39-2s4.81-22.43-4.92-30.27-23.41-7-30.46,1.92S1943.53,1569.18,1953.33,1577Z" transform="translate(-455.16 -455)"/><path class="cls-47" d="M1734.32,1375.15c2.84-3.55,9.56-2.87,15,1.5l212.43,170.54c5.11,4.1,7,10.22,4.32,13.67s-9.07,2.93-14.19-1.17L1739,1389.46C1733.59,1385.1,1731.47,1378.69,1734.32,1375.15Z" transform="translate(-455.16 -455)"/></g><path class="cls-48" d="M1321.9,1083.63c0,175.12-136.93,312.87-312,307.5-182.14-5.59-335.32-162.9-335.32-351.14S827.81,715.09,1010,734.06C1185,752.28,1321.9,908.51,1321.9,1083.63Z" transform="translate(-455.16 -455)"/><path class="cls-49" d="M1369.2,1068.53c0,175.12-136.94,312.87-312,307.5-182.14-5.59-335.33-162.9-335.33-351.14S875.11,700,1057.25,719C1232.26,737.18,1369.2,893.41,1369.2,1068.53Z" transform="translate(-455.16 -455)"/><path class="cls-50" d="M1355.46,1067.6c0,167.41-131,298.88-298.21,293.46-173.68-5.62-319.51-155.74-319.51-335.11s145.83-309.82,319.51-292C1224.44,751.06,1355.46,900.19,1355.46,1067.6Z" transform="translate(-455.16 -455)"/><path class="cls-51" d="M1341,1066.62c0,147-106.22,264.77-247.52,278a286.2,286.2,0,0,1-36.36,1.07c-165-5.54-303.44-148.29-303.44-318.62,0-148.12,104.64-261.25,240.48-277.26a288.17,288.17,0,0,1,63-.46C1216.15,765.41,1341,907.25,1341,1066.62Z" transform="translate(-455.16 -455)"/><path class="cls-52" d="M1093.47,1344.59a286.2,286.2,0,0,1-36.36,1.07c-165-5.54-303.44-148.29-303.44-318.62,0-148.12,104.64-261.25,240.48-277.26,45.88,35.82,86.95,81.65,94,136,11.54,88.52-76.89,129.26-86.65,225.47C993.49,1190.59,1031.5,1279,1093.47,1344.59Z" transform="translate(-455.16 -455)"/><circle class="cls-47" cx="1037.39" cy="1221.1" r="43.07" transform="translate(-897.21 1381.35) rotate(-72.23)"/><path class="cls-47" d="M1037.39,860.12a359.52,359.52,0,0,0-235.47,87.4,29.35,29.35,0,0,0-1.79,43l1.21,1.21A29.14,29.14,0,0,0,841,993.38a300.51,300.51,0,0,1,392.89,0,29.14,29.14,0,0,0,39.61-1.61l1.21-1.21a29.35,29.35,0,0,0-1.79-43A359.53,359.53,0,0,0,1037.39,860.12Z" transform="translate(-455.16 -455)"/><path class="cls-47" d="M1037.39,960.39a259.43,259.43,0,0,0-164,58.12,29.2,29.2,0,0,0-2,43.26l.21.21a29.45,29.45,0,0,0,39.4,1.8,201.68,201.68,0,0,1,252.89,0,29.45,29.45,0,0,0,39.4-1.8l.2-.21a29.18,29.18,0,0,0-2-43.26A259.41,259.41,0,0,0,1037.39,960.39Z" transform="translate(-455.16 -455)"/><path class="cls-47" d="M943.07,1133.51c10.59,10.58,27,11.78,39.55,3.59a100.34,100.34,0,0,1,109.55,0c12.53,8.19,29,7,39.54-3.59l.14-.14a29.28,29.28,0,0,0-4.23-44.9,160.33,160.33,0,0,0-180.46,0,29.29,29.29,0,0,0-4.22,44.9Z" transform="translate(-455.16 -455)"/><path class="cls-53" d="M1516.7,3028.21a32.53,32.53,0,0,1-29.5,32.29l-473.78,44.35-178.8,16.75-1.6.15a45.87,45.87,0,0,1-26.33-5.47l-30.89-16.64c-8-4.41-13.69-12.82-13.69-22v-464l54.5-3.78L1515.35,2561l.51,158.75.68,276.54Z" transform="translate(-455.16 -455)"/><path class="cls-54" d="M1514,3028.21v1.35c0,16.79-11.41,30.83-28.13,32.4l-651.89,61.09-1.25.15a45.31,45.31,0,0,1-26.16-5.47l-30.81-16.63c-8-4.42-13.6-12.83-13.6-22v-34.83c0,9.16,5.68,17.57,13.69,22l30.55,16.63a46.41,46.41,0,0,0,26.5,5.47l1.68-.15,652.62-61.09c16.21-1.53,27.33-14.76,28.08-30.87Z" transform="translate(-455.16 -455)"/><path class="cls-3" d="M1516,2719.72a32.52,32.52,0,0,1-28.83,25.86L833,2806.83a45.79,45.79,0,0,1-26.33-5.48l-30.89-16.63c-8-4.41-13.69-12.83-13.69-22V2613.67L1515,2561Z" transform="translate(-455.16 -455)"/><path class="cls-55" d="M835.21,2638.34v484.71l-1.89.15a46.36,46.36,0,0,1-26.48-5.47l-31-16.63c-8-4.42-13.76-12.83-13.76-22V2613.67l54.79-3.78C822.53,2617,828.25,2626.32,835.21,2638.34Z" transform="translate(-455.16 -455)"/><path class="cls-1" d="M773.82,2633.84a19,19,0,0,1,7.1-35.63l656.63-65.7a117.16,117.16,0,0,1,66.73,13.17,22.32,22.32,0,0,1-8.36,41.94l-634.58,63.49A153.68,153.68,0,0,1,773.82,2633.84Z" transform="translate(-455.16 -455)"/><polygon class="cls-1" points="527.14 2123.31 581.18 2040.6 727.27 2027.09 788.25 2097.05 527.14 2123.31"/><ellipse class="cls-3" cx="451.66" cy="2155.4" rx="71.47" ry="18.5"/><rect class="cls-3" x="380.18" y="2123.84" width="142.95" height="31.93"/><ellipse class="cls-56" cx="451.66" cy="2123.47" rx="71.47" ry="18.5"/><polygon class="cls-3" points="576.49 2179.91 630.52 2097.2 776.62 2083.68 837.6 2153.65 576.49 2179.91"/><polygon class="cls-54" points="527.14 2123.31 577.07 2179.01 630.52 2097.2 581.18 2040.6 527.14 2123.31"/><polygon class="cls-54" points="577.07 2179.01 837.6 2153.65 854.01 2175.35 583.87 2204.74 577.07 2179.01"/><polygon class="cls-1" points="583.87 2204.74 566.75 2340.04 889.96 2286.68 854.01 2175.35 583.87 2204.74"/><polygon class="cls-3" points="561.83 2340.04 577.07 2179.01 583.87 2204.74 566.75 2351.2 561.83 2340.04"/><polygon class="cls-57" points="561.83 2340.04 577.07 2179.01 583.87 2204.74 566.75 2351.2 561.83 2340.04"/><path class="cls-58" d="M1429.51,2854a224.48,224.48,0,0,1,6.63,54.32c0,123.82-100.38,224.2-224.2,224.2a224,224,0,0,1-61.66-8.59l-20.06,19.39-19.59-19.65-48.08-48.18a228.17,228.17,0,0,1-18.11-18.16l-.12-.11a224.3,224.3,0,0,1-22.41-267.93l0,0a224.12,224.12,0,0,1,352.2-35.75l78.33,78.3Z" transform="translate(-455.16 -455)"/><path class="cls-59" d="M1110.63,3123.62l-48.08-48.18a228.17,228.17,0,0,1-18.11-18.16l-.12-.11a224.3,224.3,0,0,1-22.41-267.93c-.59,2.13-33.49,121.29,16.36,158.69,50.31,37.73,58,104.5,69.66,166.42A49.88,49.88,0,0,0,1110.63,3123.62Z" transform="translate(-455.16 -455)"/><path class="cls-60" d="M1520.32,2992.44a224.06,224.06,0,0,1-224.21,224.2c-123.82,0-224.2-100.38-224.2-224.2a224.25,224.25,0,0,1,224.2-224.2C1419.93,2768.24,1520.32,2868.62,1520.32,2992.44Z" transform="translate(-455.16 -455)"/><path class="cls-61" d="M1395,3193.7a223.17,223.17,0,0,1-98.91,22.94c-123.82,0-224.2-100.38-224.2-224.2a223.37,223.37,0,0,1,64.67-157.5c24.07,9.34,48.73,31.26,61.82,79.13C1225.48,3013.12,1245,3189.94,1395,3193.7Z" transform="translate(-455.16 -455)"/><path class="cls-62" d="M1467.73,2992.44a171.68,171.68,0,1,1-64.86-134.34A171.63,171.63,0,0,1,1467.73,2992.44Z" transform="translate(-455.16 -455)"/><path class="cls-63" d="M1440.16,2964.87a171.61,171.61,0,0,1-278.4,134.34,171.6,171.6,0,0,1,241.11-241.11A170.72,170.72,0,0,1,1440.16,2964.87Z" transform="translate(-455.16 -455)"/><circle class="cls-64" cx="1278.7" cy="2975.03" r="80.3" transform="translate(-2184.3 1320.54) rotate(-45)"/><circle class="cls-65" cx="1303.37" cy="2953.26" r="39.18" transform="translate(-2325.5 3088.24) rotate(-76.72)"/><path class="cls-1" d="M1395.05,2686.53a21.66,21.66,0,0,1-21.66-19.81l-.26-2.89a21.79,21.79,0,0,1,19.72-23.64l70.82-6.42c.66-.06,1.33-.09,2-.09a21.64,21.64,0,0,1,21.66,19.81l.26,2.89a21.78,21.78,0,0,1-19.71,23.64l-70.82,6.42C1396.37,2686.5,1395.71,2686.53,1395.05,2686.53Z" transform="translate(-455.16 -455)"/><path class="cls-56" d="M1394.8,2641.24h71.11a17.41,17.41,0,0,1,17.41,17.41v2.9a17.42,17.42,0,0,1-17.42,17.42H1394.8a17.41,17.41,0,0,1-17.41-17.41v-2.9a17.41,17.41,0,0,1,17.41-17.41Z" transform="translate(-689.44 -315.03) rotate(-5.18)"/><ellipse class="cls-3" cx="865.75" cy="2105.81" rx="44.39" ry="11.49"/><rect class="cls-3" x="821.36" y="2086.21" width="88.78" height="19.83"/><ellipse class="cls-56" cx="865.75" cy="2085.98" rx="44.39" ry="11.49"/><ellipse class="cls-3" cx="968.79" cy="2115.97" rx="44.39" ry="11.49"/><rect class="cls-3" x="924.4" y="2096.37" width="88.78" height="19.83"/><ellipse class="cls-56" cx="968.79" cy="2096.14" rx="44.39" ry="11.49"/><path class="cls-66" d="M1013.72,3104.85,835.21,3121.6v1.45l-1.89.15a46.36,46.36,0,0,1-26.48-5.47l-31-16.63c-8-4.42-13.76-12.83-13.76-22V2953.79c52.21-45.17,39.72-146.25,71.81-118.51,0,0,6.63,134.11,64.68,134.11S1001.48,3008,1012.12,3097C1012.44,3099.73,1013.2,3102.34,1013.72,3104.85Z" transform="translate(-455.16 -455)"/><polygon class="cls-67" points="1640.25 2192.19 2186.32 2168.45 2815.49 2190.49 2194.8 2326.16 1640.25 2192.19"/><path class="cls-68" d="M2535.39,3173.4l-442.33-119.05c-44.55-12-79.16-56.12-79.16-98.92V2955c0-42.8,34.61-71.52,79.16-63.66l474.42,77.64Z" transform="translate(-455.16 -455)"/><path class="cls-69" d="M3271.41,3084l-714.71,79.82c-44.76,5-81.57-26.22-81.57-69.8v-29.56c0-43.58,36.81-81.84,81.57-85.4l714.71-56.89C3239.79,2981.05,3232.49,3036.13,3271.41,3084Z" transform="translate(-455.16 -455)"/><path class="cls-70" d="M3277.63,3091.93,2562.69,3173c-58.39,6.62-106.77-34.27-106.77-91.29v-.62c0-57,48.38-107.17,106.77-111.72l714.94-55.77c4.3-.33,7.79,3.25,7.79,8s-3.49,8.89-7.79,9.25L2562.69,2989c-47,3.83-85.76,44.24-85.76,90v.62c0,45.79,38.79,78.78,85.76,73.61l714.94-78.61c4.3-.48,7.79,3,7.79,7.75S3281.93,3091.44,3277.63,3091.93Z" transform="translate(-455.16 -455)"/><path class="cls-71" d="M2554,2969.41l-460.91-78.12c-44.55-7.86-79.16-66.25-79.16-130.52v-.7c0-64.27,34.61-115.27,79.16-113.62L2582,2664.61Z" transform="translate(-455.16 -455)"/><path class="cls-72" d="M3271.41,2901.12,2596.76,2952c-66.54,5-121.63-43.87-121.63-109.31v-44.38c0-65.44,55.09-120,121.63-121.8l674.65-18.39C3239.68,2746.35,3232.59,2829,3271.41,2901.12Z" transform="translate(-455.16 -455)"/><path class="cls-73" d="M3277.63,2913.59l-714.94,55.77c-58.39,4.55-106.77-61.32-106.77-146.92v-.94c0-85.61,48.38-156.45,106.77-157.9l714.94-17.77c4.3-.11,7.79,5.59,7.79,12.73s-3.49,13-7.79,13.15l-714.94,21.45c-47,1.41-85.76,58.5-85.76,127.26v.93c0,68.76,38.79,121.87,85.76,118.45l714.94-52.09c4.3-.32,7.79,5.22,7.79,12.35S3281.93,2913.26,3277.63,2913.59Z" transform="translate(-455.16 -455)"/><path class="cls-74" d="M2411,2905l-98.52-17.22c-23-62.79-21.27-120.48,0-189.42l98.52,7C2390.85,2777.91,2393.91,2843.63,2411,2905Z" transform="translate(-455.16 -455)"/><path class="cls-75" d="M2430.23,2127.37c-15.34-8.68-3.57-37.34-6.39-97.21-3.46-73.37-23.75-85.85-9.85-115.56,17-36.32,64.25-53.79,96.1-56.4,7-.58,8.44-4.52,68.29,7.18,107.83,21.08,132.62-10,181.95,16.57,47.65,25.67,29.42,58,76,88.71,75.57,49.7,148.06-13.36,202.47,28.75,51.46,39.83,59.17,148.77,11.36,211.36-54.21,71-160.52,57.05-231.76,47.94-15-1.92-90.8-13.12-172.21-65.93a446.93,446.93,0,0,1-97-85.32c-4.72-4.7-12-10.31-21.15-10.73-11-.51-19.38,6.71-23.43,9.89C2483.32,2123.35,2445.31,2135.9,2430.23,2127.37Z" transform="translate(-455.16 -455)"/><path class="cls-76" d="M2487.14,2083.61c-20-16.15-85.78,21.29-128,68.25-49.61,55.17-43,97.07-85.14,164.44-20.95,33.49-57.57,79.08-124.81,121.14q8.51,18,17,36c33.73,0,99.66-5.19,158.79-49.11,41.09-30.51,60.85-68.84,98.72-144.27C2461.68,2204.39,2512.18,2103.8,2487.14,2083.61Z" transform="translate(-455.16 -455)"/><path class="cls-77" d="M2119,3098.22l51-35,23.87-1.44s10,29.77,9.13,31.34c-9.58,18.07-58.3,34.32-89.13,37.29-5.12.49-12.28,1-14.35-2.66C2095.92,3121.66,2109.12,3107.61,2119,3098.22Z" transform="translate(-455.16 -455)"/><path class="cls-78" d="M2168.76,3028.5c4.59,19.47.91,30-3.38,36-3,4.24-5.84,5.56-24.2,23.47-6.07,5.93-9.15,9.09-8.31,10.6,1,1.72,6.54.42,18.57-3.26,26.21-8,39.37-12.13,42.25-18.73,2.6-6-.17-8.43-1-24.23a82.47,82.47,0,0,1,2.44-24.24Z" transform="translate(-455.16 -455)"/><path class="cls-79" d="M2121.1,2874.88s-22.17,30-16.39,61,44.86-17.2,49.76-33,10.39-38.21,10.39-38.21S2134.41,2848.16,2121.1,2874.88Z" transform="translate(-455.16 -455)"/><path class="cls-80" d="M2127.52,2829.71s8.49,32.83-2.81,51.11c-5.63,9.11-13.49,17-10.62,24,1.93,4.66,8.35,7.71,13.58,6.85,10-1.65,14.67-17.44,18-28.58,4.84-16.45,6-51.09,6-51.09Z" transform="translate(-455.16 -455)"/><path class="cls-81" d="M2148.26,2856.57l-22.53-6.7c-13.05-25.5-29.64-67.66-28.13-120.22,3.9-135.17,123.94-213.93,137.29-222.39,34.91,14.95,70.67,36.86,73.74,67,3.86,37.86-46.63,61-91.87,119.47C2189.6,2728.81,2161.43,2780.32,2148.26,2856.57Z" transform="translate(-455.16 -455)"/><path class="cls-82" d="M2167.54,3044c-30-93.39-28.49-171.16-24.18-216.18,6.52-68,19.77-206.43,108.2-263.08,19.32-12.37,47.29-24.09,80.23-57.23a295.61,295.61,0,0,0,54.35-75.93c120.24-43.3,234-35.57,287.81,27.07,6.21,7.23,21.62,22.82,25.88,46.91,9.59,54.36-40.21,123.51-99.73,140.92-75.65,22.13-124.91-53.94-191.29-23.63-18.56,8.48-33.58,27.62-63.62,65.89a514.82,514.82,0,0,0-66.38,110.33c-22.9,52.38-40.32,91.08-40.26,139.87,0,11.36,1,34.27-10.77,59.74-9,19.56-22.08,33-31.87,41.45Z" transform="translate(-455.16 -455)"/><path class="cls-83" d="M2699.83,2505.57c-4.26-24.09-19.67-39.68-25.88-46.91-53.79-62.64-167.57-70.37-287.81-27.07a295.78,295.78,0,0,1-54.34,75.93c-33,33.14-60.92,44.86-80.24,57.23-54,34.6-79.94,99.66-93.46,160.58,23-41,44.18-52.76,61-54,24.09-1.73,36.11,18.24,64.73,13.68,30.59-4.86,36.09-30.73,60.85-35.16,7.41-1.33,16.67-.73,28.06,4.48,13.79-16.31,24.21-26.1,36.06-31.51,66.38-30.31,115.64,45.76,191.29,23.63C2659.62,2629.08,2709.42,2559.93,2699.83,2505.57Z" transform="translate(-455.16 -455)"/><path class="cls-84" d="M2205,2610.15a404,404,0,0,1,61-2.3c122.87,4.69,160.19,63.07,262,71.71,24.08,2,131.34,11.15,173.68-53.1,30.39-46.12,20.79-121.85-17.17-149.57-16.07-11.74-31.2-10.47-129.16-3.66-36.89,2.57-73.79,4.92-110.68,7.62-156.11,11.43-186.65,2.41-213.51,30C2218.63,2523.68,2200.81,2550.75,2205,2610.15Z" transform="translate(-455.16 -455)"/><path class="cls-85" d="M2504.52,2088.92s179.1-64.18,206.08,68.15c25.86,126.83-63.46,191.15-13.37,318.18,5.8,14.72-350.31-32.81-350.31-32.81,43.44-61.45,51.43-110.47,50.52-144.16-1-36.93-12.63-53-5.87-97.18,0,0,7.55-49.25,42.84-93.29C2439.47,2101.49,2445.57,2094.86,2504.52,2088.92Z" transform="translate(-455.16 -455)"/><g class="cls-86"><path class="cls-3" d="M2643.47,2450.62c-1.73-.35-172.63-34.94-273.84-34.94h-1.91v-3.48h1.92c101.56,0,272.8,34.66,274.53,35Z" transform="translate(-455.16 -455)"/></g><path class="cls-87" d="M2539.28,2006.54c-1.2,7.91-7.17,50.29,10.61,60,3.86,2.11,11.07,3,25.51,4.83,9.44,1.18,17.35,1.78,22.92,2.11-.38,7.07-2.05,18.64-9.53,29.53-20.95,30.51-66.95,25.72-73.51,24.93-23.16-2.79-46.13-8.5-51.84-12.5-8.69-6.08-15.5-10.63-19.66-15.42,8.6-4.82,25.82-17.2,37.61-21.62a222.36,222.36,0,0,1,24.69-7.67q1.15-12.24,2.32-24.49Z" transform="translate(-455.16 -455)"/><path class="cls-88" d="M2541.34,2027.36s-1.24,30.87-30.74,38.08c-26.41,6.46-50.42-56.86-37.76-74.38,4.22-5.85,15.16-11.83,24.93-12.13,6.88-.22,30.59,7.21,35.23,30.2,4.32-5.14,10-6.89,12.94-5,3.76,2.37,2.29,10,1.95,11.72A21.68,21.68,0,0,1,2541.34,2027.36Z" transform="translate(-455.16 -455)"/><path class="cls-89" d="M2310.66,2459.67l279.87-3.28a11.73,11.73,0,0,1,9.71,4.94l8.47,11.92a9.08,9.08,0,0,1-7.2,14.34l-296.26,6.6Z" transform="translate(-455.16 -455)"/><path class="cls-90" d="M2011.05,2321.82,2299.67,2310a24.22,24.22,0,0,1,21.29,11l110.44,169.61-305.19,6.27a24.86,24.86,0,0,1-21-10.81l-101.83-148.93A9.78,9.78,0,0,1,2011.05,2321.82Z" transform="translate(-455.16 -455)"/><path class="cls-91" d="M2321,2321a24.22,24.22,0,0,0-21.29-11l-6.33.26c-.38,9.37-2.72,18.05-8,25.27-16.48,22.53-46.81,11.08-67.45,35.12-22.67,26.4,1.46,54.74-18.76,79.27-21.28,25.81-59.28,8.14-100.63,26.33l6.7,9.81a24.86,24.86,0,0,0,21,10.81l305.19-6.27Z" transform="translate(-455.16 -455)"/><path class="cls-92" d="M2566.41,2434.86l-12.64-28.12c39.48-13.43,94-33,149.72-56.83,8.73-3.73,19.09-8.32,22-17.91,8.15-26.92-55.4-50.45-82.94-106.48-25.47-51.81-17.68-126.33,7.62-136.6,52.65-21.39,257.58,204.33,195.56,308.46C2810.65,2456.24,2692.57,2472.41,2566.41,2434.86Z" transform="translate(-455.16 -455)"/><path class="cls-93" d="M2553.77,2406.74c-26-11.86-55.34,3.68-57.23,4.72a75.5,75.5,0,0,0-20.8,16.9c-.84,1.31-10.86,17.12-6.58,21.73,3.42,3.7,15.59-.27,29.89-10.41a115.63,115.63,0,0,1,26.56-2.26c20.51.65,30.25,6.53,37.31.52,5.18-4.4,6.51-13.12,4.17-19.4C2564.58,2411.79,2558.17,2408.75,2553.77,2406.74Z" transform="translate(-455.16 -455)"/></g></g></svg>