<svg id="Layer_2" data-name="Layer 2" xmlns="http://www.w3.org/2000/svg" viewBox="0 0 338.1 99.94"><defs><style>.cls-1{fill:#fff;}</style></defs><title>PALOO</title><path class="cls-1" d="M58.47,158a3.87,3.87,0,0,1-3.87-3.87,26.91,26.91,0,0,1,27-26.72H97.89c17.26,0,31.31-13.81,31.31-30.8s-14-30.81-31.31-30.81H58.47a3.87,3.87,0,1,1,0-7.74H97.89c21.53,0,39.05,17.29,39.05,38.55s-17.52,38.55-39,38.55H81.64a19.16,19.16,0,0,0-19.3,19A3.87,3.87,0,0,1,58.47,158Z" transform="translate(-10.95 -58.03)"/><path class="cls-1" d="M73.22,82.16H36.68a3.87,3.87,0,1,1,0-7.74H73.22a3.87,3.87,0,1,1,0,7.74Z" transform="translate(-10.95 -58.03)"/><path class="cls-1" d="M71.82,121H30.65a3.88,3.88,0,1,1,0-7.75H64.21C66.09,86.44,87.38,83.33,87.6,83.3a3.87,3.87,0,0,1,1,7.68c-.75.11-16.81,2.78-16.81,26.12Z" transform="translate(-10.95 -58.03)"/><path class="cls-1" d="M72.52,102.09H14.82a3.88,3.88,0,0,1,0-7.75h57.7a3.88,3.88,0,0,1,0,7.75Z" transform="translate(-10.95 -58.03)"/><path class="cls-1" d="M173.64,100.82h-8.27v19h-9.9V70.41h18.17c11.89,0,17.83,6.71,17.83,15.27C191.47,93.18,186.37,100.82,173.64,100.82Zm-.42-8c5.59,0,8.06-2.76,8.06-7.15s-2.47-7.21-8.06-7.21h-7.85V92.83Z" transform="translate(-10.95 -58.03)"/><path class="cls-1" d="M213.82,80a15.48,15.48,0,0,1,12.94,6.23V80.59h10v39.18h-10V114a15.44,15.44,0,0,1-13,6.37c-9.9,0-17.83-8.14-17.83-20.37S203.85,80,213.82,80Zm2.54,8.7c-5.3,0-10.32,4-10.32,11.39s5,11.67,10.32,11.67,10.4-4.1,10.4-11.53S221.81,88.65,216.36,88.65Z" transform="translate(-10.95 -58.03)"/><path class="cls-1" d="M246.42,67.43h9.91v52.34h-9.91Z" transform="translate(-10.95 -58.03)"/><path class="cls-1" d="M283.49,120.41c-11.32,0-19.88-7.92-19.88-20.23S272.45,80,283.77,80s20.15,7.85,20.15,20.23S294.87,120.41,283.49,120.41Zm0-8.63c5.23,0,10.25-3.82,10.25-11.6s-4.88-11.6-10.11-11.6-10,3.75-10,11.6S278.18,111.78,283.49,111.78Z" transform="translate(-10.95 -58.03)"/><path class="cls-1" d="M328.61,120.41c-11.31,0-19.87-7.92-19.87-20.23S317.58,80,328.89,80s20.16,7.85,20.16,20.23S340,120.41,328.61,120.41Zm0-8.63c5.23,0,10.26-3.82,10.26-11.6s-4.88-11.6-10.12-11.6-10,3.75-10,11.6S323.31,111.78,328.61,111.78Z" transform="translate(-10.95 -58.03)"/><path class="cls-1" d="M159.26,136.28h9.57v2.18h-6.9v4.79h5.38v2.18h-5.38v7.11h-2.67Z" transform="translate(-10.95 -58.03)"/><path class="cls-1" d="M171.31,136.28H174v16.26h-2.67Z" transform="translate(-10.95 -58.03)"/><path class="cls-1" d="M190.84,136.26v16.28h-2.67l-8-12.14v12.14h-2.66V136.26h2.66l8,12.11V136.26Z" transform="translate(-10.95 -58.03)"/><path class="cls-1" d="M204.15,149.21h-6.81l-1.17,3.33h-2.78l5.83-16.28h3.08l5.83,16.28h-2.81Zm-3.39-9.72L198.09,147h5.31Z" transform="translate(-10.95 -58.03)"/><path class="cls-1" d="M224,136.26v16.28h-2.67l-8-12.14v12.14h-2.67V136.26h2.67l8,12.11V136.26Z" transform="translate(-10.95 -58.03)"/><path class="cls-1" d="M234.93,136.07a7.75,7.75,0,0,1,7.56,4.89h-3.21a4.53,4.53,0,0,0-4.35-2.55c-3.22,0-5.56,2.29-5.56,6s2.34,6,5.56,6a4.53,4.53,0,0,0,4.35-2.55h3.21a7.73,7.73,0,0,1-7.56,4.87,8.31,8.31,0,0,1,0-16.61Z" transform="translate(-10.95 -58.03)"/><path class="cls-1" d="M245.6,136.28h2.67v16.26H245.6Z" transform="translate(-10.95 -58.03)"/><path class="cls-1" d="M265.13,136.26v16.28h-2.67l-8-12.14v12.14h-2.66V136.26h2.66l8,12.11V136.26Z" transform="translate(-10.95 -58.03)"/><path class="cls-1" d="M283.61,141h-3.2a4.62,4.62,0,0,0-4.35-2.46c-3.23,0-5.57,2.29-5.57,5.87s2.34,5.9,5.57,5.9a4.93,4.93,0,0,0,5.19-4.52h-6.11v-2.13h9v2.09a8,8,0,0,1-8,7,8.31,8.31,0,1,1,0-16.61A7.75,7.75,0,0,1,283.61,141Z" transform="translate(-10.95 -58.03)"/><path class="cls-1" d="M286.75,149.33h2.9l-2.83,6.46h-1.73Z" transform="translate(-10.95 -58.03)"/><path class="cls-1" d="M298.07,136.28h2.66v16.26h-2.66Z" transform="translate(-10.95 -58.03)"/><path class="cls-1" d="M317.6,136.26v16.28h-2.67l-8-12.14v12.14h-2.67V136.26h2.67l8,12.11V136.26Z" transform="translate(-10.95 -58.03)"/><path class="cls-1" d="M328.52,136.07a7.76,7.76,0,0,1,7.56,4.89h-3.21a4.54,4.54,0,0,0-4.35-2.55c-3.22,0-5.56,2.29-5.56,6s2.34,6,5.56,6a4.54,4.54,0,0,0,4.35-2.55h3.21a7.74,7.74,0,0,1-7.56,4.87,8.31,8.31,0,0,1,0-16.61Z" transform="translate(-10.95 -58.03)"/><path class="cls-1" d="M340.27,152.7A1.71,1.71,0,1,1,342,151,1.69,1.69,0,0,1,340.27,152.7Z" transform="translate(-10.95 -58.03)"/></svg>