<svg id="Layer_1" data-name="Layer 1" xmlns="http://www.w3.org/2000/svg" viewBox="0 0 342.43 107.72"><title>spyder</title><path d="M174.91,101.21l-15.15-4L79,75.55l-.86-.24c-1.27-.38-2.26-1.11-1.9-2.56s1.65-1.11,2.68-.93Q93.57,74.39,108.2,77q37.72,6.69,75.46,13.37l83.74,14.91,9.16,1.64c.53.09,1.2,0,1.55.35a4.65,4.65,0,0,1,1.56,2.08c.09.33-1,1.29-1.63,1.43-4.26.89-8.53,1.78-12.84,2.42-18.15,2.69-36.42,4.72-54.73,5-24.05.38-48.13.09-72.13-2.42-23.46-2.45-46.83-5.5-69.94-10.34l-1.05-.23c-1.24-.27-2.18-.92-2-2.29s1.39-1.37,2.48-1.37h66.66l38.71,0h1.71Z" transform="translate(-7.79 -54.14)"/><path d="M186,70.92c5,1.36,10,2.73,14.94,4.06l79.75,21.26c.52.14,1.2.14,1.51.47.63.67,1.47,1.54,1.46,2.32,0,1.23-1.23,1.22-2.22,1q-6.54-1.14-13.06-2.3-35.7-6.36-71.4-12.71-39.51-7-79-13.85C107.88,69.45,97.81,67.75,87.75,66c-.53-.09-1.18,0-1.55-.35a4.26,4.26,0,0,1-1.64-2c-.09-.4,1-1.44,1.7-1.55,10.88-1.84,21.73-4,32.68-5.27a416.81,416.81,0,0,1,59.22-2.56,644.55,644.55,0,0,1,77.25,6.63c11.81,1.73,23.56,3.86,35.33,5.82.42.06,1,0,1.2.28.66.66,1.59,1.41,1.66,2.19.1,1.19-1.11,1.32-2.12,1.33-6.45,0-12.9.14-19.35.13q-36.12,0-72.23-.08c-4.12,0-8.24,0-12.36,0-.51,0-1,0-1.52.08Z" transform="translate(-7.79 -54.14)"/><path d="M246.55,138.87c-.33,1.72-.61,3.24-.94,5h42.23c2.37,0,3.38.71,3.51,2.41a3.85,3.85,0,0,1-3.15,4,11.73,11.73,0,0,1-2,.07H244.57c-1.4,4.67-1.17,5,3.43,5h38.88c2.66,0,3.82.82,3.82,2.67a3.87,3.87,0,0,1-3.95,3.8c-14.34,0-28.67.06-43,0-4.31,0-7.14-3.89-6.37-8.54.74-4.48,1.64-8.93,2.47-13.39.23-1.23.43-2.47.69-3.69.55-2.61,1.95-3.76,4.65-3.76q12.09,0,24.19,0h22c2.41,0,3.51.81,3.58,2.56a3.87,3.87,0,0,1-3.46,3.9,14.37,14.37,0,0,1-1.61,0H246.55Z" transform="translate(-7.79 -54.14)"/><path d="M31.46,161.81H11.56c-2.54,0-3.71-.8-3.77-2.54a4.1,4.1,0,0,1,3.7-3.93c.6-.05,1.2,0,1.8,0q19.35,0,38.71,0a3.54,3.54,0,0,0,3.41-1.51,2.13,2.13,0,0,0-1.59-3.45,13.34,13.34,0,0,0-1.79,0c-11.71,0-23.42-.17-35.13.07-5.56.12-9.95-4.85-7.15-11.12a10.79,10.79,0,0,1,10.42-6.88c13.2-.05,26.41,0,39.61,0,2.33,0,3.4.74,3.55,2.4a3.88,3.88,0,0,1-3.29,4,14.36,14.36,0,0,1-2,.05q-19.17,0-38.35,0a5.25,5.25,0,0,0-3,.71,3.69,3.69,0,0,0-1.2,2.7c.06,1.22,1.23,1.57,2.43,1.56,5.44,0,10.88,0,16.31,0h19.9c6.51,0,10,5.38,7.24,11.3a10.73,10.73,0,0,1-10,6.64H31.46Z" transform="translate(-7.79 -54.14)"/><path d="M339.34,150.45c2.16,1.83,4.15,3.44,6.05,5.16s1.87,3.2.46,4.82-3.34,1.7-5.22.37c-3.79-2.68-7.56-5.42-11.55-7.76a21.27,21.27,0,0,0-10.49-2.65c-4.53-.08-9.07-.06-13.61,0a3.06,3.06,0,0,0-3.4,2.74,44.81,44.81,0,0,1-1,5.08,6.05,6.05,0,0,1-2.13,3.06,3.69,3.69,0,0,1-3.27,0,3.4,3.4,0,0,1-1-2.89c1.28-7.53,2.72-15,4.17-22.52.45-2.36,1.9-3.46,4.3-3.46,13.13,0,26.26,0,39.4,0,6.76,0,10.19,5.82,7,11.81C347,147.94,343.79,150,339.34,150.45Zm-36-6.76a3.42,3.42,0,0,0,.68.17q18.17,0,36.32,0c2,0,3.42-1.35,3.34-3-.07-1.41-1-2-3.21-2H305.94c-.52,0-1.05,0-1.72.08C303.93,140.56,303.64,142.12,303.35,143.69Z" transform="translate(-7.79 -54.14)"/><path d="M201,161.82H181.49c-3,0-3.86-1.11-3.31-4q2.07-10.9,4.12-21.81a4,4,0,0,1,4.17-3.63c12.66,0,25.32.17,38,0,7-.1,10.2,4.79,10.86,9.66,1,7.21-3.51,15.6-10.13,18.64-1.63.75-3.56.82-5.35,1.19a2.16,2.16,0,0,1-.36,0Zm-15.84-6.5h2.34c10.39,0,20.79-.18,31.17.06,6.74.17,10.08-4.65,10.35-9.89.2-4-1.78-6.51-5.81-6.56-11.28-.12-22.57-.06-33.85,0a1.72,1.72,0,0,0-1.27,1C187.1,145,186.18,150,185.18,155.32Z" transform="translate(-7.79 -54.14)"/><path d="M93,132.38c6.39,0,12.78,0,19.17,0,7.09,0,10.59,6.16,6.92,12.27a10.94,10.94,0,0,1-9.9,5.69q-16.58,0-33.13,0c-2.92,0-3.7.63-4.27,3.43-.32,1.58-.54,3.19-1,4.73a5.33,5.33,0,0,1-1.29,2.26,3.15,3.15,0,0,1-3.93.71c-1.42-.75-1.4-2.09-1.15-3.45l3.33-17.58c.24-1.29.48-2.58.73-3.87.64-3.22,1.82-4.18,5.16-4.18ZM73.79,143.86c12.47,0,24.82,0,37.18,0A3.08,3.08,0,0,0,114.1,141c0-1.36-1.08-2.11-3.13-2.11H78.89c-4.43,0-4.43,0-5.13,4.43A3.4,3.4,0,0,0,73.79,143.86Z" transform="translate(-7.79 -54.14)"/><path d="M144.32,158.65c.38-2.05.7-4.36,1.27-6.61.38-1.49-.08-2.2-1.37-2.93-5.82-3.29-11.58-6.68-17.36-10.05-2.15-1.25-2.69-2.69-1.7-4.51a3.71,3.71,0,0,1,5.32-1.53q9.32,5.37,18.58,10.81a2.42,2.42,0,0,0,2.61.1c7.24-3.52,14.52-7,21.8-10.44.48-.23.95-.49,1.46-.68,1.33-.5,2.63-.53,3.57.7a2.82,2.82,0,0,1-.22,3.79,7.59,7.59,0,0,1-2.43,1.75c-7.31,3.53-14.63,7-22,10.47a2.89,2.89,0,0,0-1.91,2.64,60.64,60.64,0,0,1-1.18,6.52,3.87,3.87,0,0,1-3.48,3.11C145.4,161.93,144.22,160.79,144.32,158.65Z" transform="translate(-7.79 -54.14)"/></svg>